<svg width="277" height="200" viewBox="0 0 277 200" fill="none" xmlns="http://www.w3.org/2000/svg">
<g clip-path="url(#clip0_634_16314)">
<path d="M223.863 199.309C222.993 197.9 224.445 180.582 227.16 159.979C227.815 155.009 228.733 141.213 229.202 129.32L230.053 107.698L226.326 107.744C224.277 107.769 217.396 108.579 211.036 109.545C198.852 111.394 194.557 110.766 191.453 106.679C189.095 103.575 189.371 97.2015 191.995 94.1433C195.904 89.587 209.443 78.6478 218.083 73.0642C227.607 66.9095 233.568 61.9255 233.568 60.1175C233.568 59.4401 230.52 58.4727 226.794 57.9679C214.751 56.3361 210.341 52.6255 210.341 44.1245C210.341 39.1626 212.921 36.3908 225.11 28.261L232.783 23.1437L228.982 22.4982C223.67 21.5963 221.15 19.8585 218.921 15.5598C216.382 10.6649 217.22 8.97969 223.669 6.00141C244.141 -3.45161 259.007 -1.6186 261.462 10.6613L262.288 14.7913L255.885 20.9038C252.363 24.2658 248.296 27.8878 246.847 28.9527C243.31 31.5519 244.071 41.8618 247.8 41.8618C251.854 41.8618 258.087 48.135 258.087 52.2151C258.087 55.0813 256.43 57.3258 250.518 62.4699L242.949 69.0553L242.077 77.5664C241.598 82.2476 241.497 86.3694 241.854 86.7261C242.211 87.0828 247.999 86.6825 254.717 85.8366C268.873 84.0542 273.319 85.3648 276.128 92.1473C278.524 97.9335 276.467 99.4579 263.843 101.25C257.842 102.103 250.189 103.5 246.837 104.355L240.741 105.911L239.876 110.14C239.401 112.466 238.627 123.179 238.156 133.947C237.149 156.982 234.411 180.564 231.673 189.781C229.56 196.895 225.461 201.895 223.863 199.309ZM222.6 91.5532C232.049 90.1348 232.278 89.9498 232.278 83.7291C232.278 80.582 231.829 78.007 231.281 78.007C229.954 78.007 217.35 86.3443 212.483 90.4416L208.616 93.6963L213.027 93.0122C215.453 92.6359 219.761 91.9794 222.6 91.5532ZM235.827 40.82C239.723 35.9081 235.961 35.2408 230.665 39.9043C228.713 41.6228 227.116 43.2666 227.116 43.5572C227.116 44.9099 234.397 42.6219 235.827 40.82ZM76.5223 165.365C75.9547 164.422 73.1752 162.535 70.3456 161.17C60.5738 156.457 55.8968 143.506 61.9783 138C63.4184 136.696 67.1755 131.714 70.3275 126.928C73.4795 122.141 77.1302 117.454 78.4402 116.512C81.0025 114.668 83.1563 110.28 81.4989 110.28C78.7393 110.28 58.0695 135.165 58.0695 138.488C58.0695 139.021 55.8255 145.237 53.0829 152.3C48.8027 163.324 47.6479 165.198 44.9309 165.529C42.5732 165.816 41.3761 165.059 40.2392 162.563C37.8942 157.415 38.2913 155.501 44.2783 143.104C47.3393 136.766 51.2087 128.094 52.8771 123.834C54.5455 119.574 56.3119 115.508 56.8025 114.798C57.2931 114.088 59.8992 109.441 62.5938 104.471C65.2884 99.5006 68.0626 94.5185 68.7587 93.3993C69.7059 91.8763 69.0076 89.9606 65.9825 85.783C63.7596 82.7132 61.9408 78.7202 61.9408 76.9097C61.9408 74.2805 61.6161 73.9412 60.3277 75.2238C58.6074 76.9365 56.5497 82.4031 51.0196 99.9524C49.1178 105.987 47.1085 111.796 46.5543 112.861C44.7064 116.413 40.6398 115.598 33.0397 110.154C27.1535 105.937 24.8371 103.24 22.4327 97.8008C17.8611 87.46 18.3176 81.2886 24.3357 72.0754C28.5483 65.6262 31.7147 62.8767 44.9018 54.2167L60.4887 43.9808L63.7246 36.8261C65.5043 32.891 66.758 29.4688 66.5105 29.2212C65.8648 28.5752 50.6113 36.9612 34.126 47.0254C21.071 54.9954 18.8237 55.9366 12.6964 55.9997C7.52597 56.053 6.21259 55.5041 3.34079 52.09C1.49026 49.8899 0 46.5084 0 44.5095V40.9009L5.48434 40.0271C8.50072 39.5465 14.1625 37.33 18.0661 35.1017C45.3121 19.5482 70.9981 7.00743 75.6088 7.00743C77.5424 7.00743 80.4809 8.57401 82.6869 10.7808C87.241 15.3365 87.6575 21.1614 83.8733 27.3703C80.4723 32.9505 80.5927 33.2562 85.2436 30.8503C90.7324 28.0109 112.772 21.2744 121.19 19.8632C127.028 18.8844 129.042 19.0982 133.449 21.1651C140.37 24.4115 142.407 26.1755 144.975 31.1477C148.467 37.9066 147.711 41.0778 140.98 47.9221C134.73 54.2764 100.911 82.7613 93.143 88.2138L88.8584 91.2211L92.8204 93.6314C96.169 95.6686 96.7824 96.8324 96.7824 101.148C96.7824 103.957 97.3631 106.614 98.0729 107.052C98.7826 107.491 99.3633 109.911 99.3633 112.429C99.3633 115.788 98.495 117.691 96.1047 119.572C91.6694 123.062 89.2292 129.433 87.0551 143.198C85.0083 156.157 83.3713 163.476 82.0365 165.636C80.8207 167.604 77.7802 167.455 76.5223 165.365ZM76.0303 148.684L75.925 143.198L74.0621 147.464C72.2255 151.669 72.5458 154.17 74.9212 154.17C75.5891 154.17 76.0882 151.701 76.0303 148.684ZM41.6178 92.207C43.3999 86.882 46.08 79.4754 47.5736 75.748C49.2902 71.4641 49.7539 68.9707 48.8341 68.9707C46.3297 68.9707 33.805 80.4591 31.6936 84.6931C30.5861 86.9139 29.68 90.1228 29.68 91.824C29.68 97.6851 35.1199 105.174 37.5775 102.696C38.0176 102.252 39.8357 97.5319 41.6178 92.207ZM87.0148 91.0418C86.6753 90.7022 85.3951 91.4712 84.17 92.7508L81.9425 95.0773L84.7873 93.3683C86.3519 92.4283 87.3543 91.3814 87.0148 91.0418ZM81.0002 74.1267C83.3241 70.2364 84.6421 66.8588 83.9292 66.6211C82.0245 65.986 72.6542 73.0072 70.7754 76.4774C69.4381 78.9474 69.4829 79.675 71.0334 80.6712C74.3972 82.8324 76.7051 81.317 81.0002 74.1267ZM116.653 53.1572C131.365 38.9304 134.466 34.1164 128.918 34.1164C125.402 34.1164 93.9043 44.6518 82.0878 49.7804C72.3319 54.0147 65.7856 59.1174 65.8531 62.435L65.8941 64.4526L67.4661 62.3919C68.3307 61.2585 70.8225 59.4089 73.0034 58.2816C75.1843 57.1543 77.6924 55.3596 78.5769 54.2934C80.891 51.5041 87.3437 50.4167 91.46 52.1224C95.6347 53.8522 99.3633 59.6111 99.3633 64.329C99.3633 66.172 99.8745 67.6798 100.499 67.6798C101.124 67.6798 108.393 61.1446 116.653 53.1572ZM151.626 154.143C147.367 152.785 142.722 151.107 141.302 150.414C139.883 149.721 135.237 147.736 130.979 146.003C110.907 137.833 99.7579 132.969 97.0379 131.195C92.8192 128.444 93.6606 123.139 98.7181 120.6C100.847 119.531 105.647 116.772 109.384 114.468C113.12 112.165 116.637 110.28 117.198 110.28C117.759 110.28 120.186 108.827 122.591 107.052C127.791 103.215 130.476 102.999 133.36 106.186C136.595 109.762 136.015 113.507 131.947 115.317C126.245 117.855 114.848 124.942 114.848 125.95C114.848 126.459 118.187 128.124 122.268 129.649C126.349 131.175 133.572 134.126 138.319 136.208C143.065 138.29 150.35 140.349 154.506 140.783C161.027 141.465 162.942 141.118 168.459 138.254C171.976 136.429 177.729 132.621 181.244 129.792C184.758 126.964 188.169 124.98 188.823 125.384C189.477 125.789 189.68 128.918 189.276 132.338C187.862 144.278 174.702 156.853 163.8 156.683C161.363 156.644 155.884 155.502 151.626 154.143ZM147.154 105.809L144.168 102.629L144.82 94.4915C145.18 90.0159 146.935 82.7332 148.722 78.3078C150.509 73.8824 151.491 70.2616 150.904 70.2616C149.026 70.2616 140.657 75.6371 140.657 76.8437C140.657 77.4835 140.031 78.007 139.265 78.007C138.499 78.007 135.259 80.6217 132.064 83.8174C128.87 87.0131 124.706 89.9978 122.811 90.4499C120.915 90.9021 118.665 91.8229 117.808 92.4961C115.977 93.9367 113.558 92.7529 113.558 90.4157C113.558 84.1303 137.955 58.2056 148.921 52.8386C157.792 48.4969 162.728 48.227 167.483 51.8236L170.982 54.4703L170.836 61.6716L170.689 68.873L173.022 67.624C174.305 66.9371 175.712 65.7973 176.148 65.0911C178.326 61.5655 187.578 65.1525 189.734 70.3583C190.952 73.2999 190.814 75.298 189.012 80.8407C184.316 95.2862 177.504 103.825 170.676 103.825C166.933 103.825 166.339 102.528 168.375 98.8031C175.816 85.1871 174.723 82.9199 166.284 94.466C159.758 103.395 154.203 108.989 151.863 108.989C150.915 108.989 148.796 107.558 147.154 105.809Z" fill="white"/>
</g>
<defs>
<clipPath id="clip0_634_16314">
<rect width="277" height="200" fill="white"/>
</clipPath>
</defs>
</svg>
