<svg width="825" height="121" viewBox="0 0 825 121" fill="none" xmlns="http://www.w3.org/2000/svg">
<g clip-path="url(#clip0_641_769)">
<path d="M763.764 54.1599V114.24L771.684 116.72V119.2H727.444V116.72L735.924 114.08V56.7999C735.017 55.8399 733.737 54.4799 732.084 52.7199C730.484 50.9599 728.484 48.9865 726.084 46.7999V44.5599L762.324 34.8799H763.764V54.1599ZM780.564 116.72L788.564 114.24V65.3599C788.564 62.4799 788.111 60.1599 787.204 58.3999C786.351 56.6399 785.044 55.3599 783.284 54.5599C781.524 53.7065 779.257 53.2799 776.484 53.2799C773.817 53.2799 771.204 53.6532 768.644 54.3999C766.084 55.0932 763.497 56.0799 760.884 57.3599L760.484 55.8399C764.591 51.4132 768.111 47.8665 771.044 45.1999C774.031 42.4799 776.697 40.4532 779.044 39.1199C781.391 37.7332 783.737 36.8265 786.084 36.3999C788.431 35.9199 791.071 35.6799 794.004 35.6799C801.417 35.6799 806.991 37.7332 810.724 41.8399C814.511 45.9465 816.404 51.9199 816.404 59.7599V114.08L824.884 116.72V119.2H780.564V116.72Z" fill="#030025"/>
<path d="M686.884 116C690.244 116 692.937 114.774 694.964 112.32C697.044 109.867 698.537 106.027 699.444 100.8C700.35 95.5202 700.804 88.7202 700.804 80.4002C700.804 71.5469 700.35 64.1869 699.444 58.3202C698.59 52.4002 697.124 47.9735 695.044 45.0402C693.017 42.0535 690.244 40.5602 686.724 40.5602C683.31 40.5602 680.59 41.7869 678.564 44.2402C676.537 46.6935 675.07 50.5335 674.164 55.7602C673.257 60.9869 672.804 67.7602 672.804 76.0802C672.804 84.8802 673.23 92.2402 674.084 98.1602C674.937 104.08 676.377 108.534 678.404 111.52C680.484 114.507 683.31 116 686.884 116ZM685.844 121.28C677.577 121.28 670.27 119.467 663.924 115.84C657.577 112.214 652.617 107.2 649.044 100.8C645.524 94.3469 643.764 86.9335 643.764 78.5602C643.764 69.9735 645.657 62.4269 649.444 55.9202C653.284 49.4135 658.51 44.3469 665.124 40.7202C671.79 37.0402 679.31 35.2002 687.684 35.2002C696.164 35.2002 703.55 37.0135 709.844 40.6402C716.137 44.2135 721.044 49.2269 724.564 55.6802C728.084 62.0802 729.844 69.4935 729.844 77.9202C729.844 86.5069 727.897 94.0802 724.004 100.64C720.11 107.147 714.857 112.214 708.244 115.84C701.63 119.467 694.164 121.28 685.844 121.28Z" fill="#030025"/>
<path d="M636.737 42.0804L627.137 39.9204V37.2804H652.097V39.9204L643.537 42.1604L621.857 119.92H604.897L579.377 55.3604L584.817 53.5204L561.137 119.92H544.177L520.337 43.1204L511.857 39.7604V37.2804H558.897V39.9204L549.377 42.4004L566.017 101.44L560.977 106.88L583.857 36.4004H601.057L626.097 100.96L620.817 106.8L636.737 42.0804Z" fill="#030025"/>
<path d="M485.598 35.2002C492.371 35.2002 498.131 36.5335 502.878 39.2002C507.624 41.8135 511.331 45.6269 513.997 50.6402C516.664 55.6535 518.264 61.6802 518.797 68.7202H464.557V62.4002H506.638L493.997 66.3202C493.677 59.7602 493.064 54.6402 492.158 50.9602C491.304 47.2269 490.104 44.5869 488.557 43.0402C487.064 41.4935 485.171 40.7202 482.878 40.7202C480.051 40.7202 477.651 41.5735 475.677 43.2802C473.757 44.9869 472.291 47.8669 471.277 51.9202C470.264 55.9735 469.758 61.5469 469.758 68.6402C469.758 76.9069 470.718 83.5735 472.638 88.6402C474.611 93.6535 477.518 97.3069 481.358 99.6002C485.198 101.894 489.944 103.04 495.598 103.04C498.478 103.04 501.171 102.72 503.677 102.08C506.237 101.387 508.691 100.294 511.038 98.8002C513.438 97.3069 515.837 95.3069 518.237 92.8002L520.158 94.4802C516.424 101.147 512.664 106.454 508.878 110.4C505.144 114.294 501.198 117.094 497.038 118.8C492.931 120.454 488.371 121.28 483.358 121.28C475.464 121.28 468.504 119.654 462.478 116.4C456.451 113.147 451.757 108.427 448.397 102.24C445.091 96.0535 443.438 88.6135 443.438 79.9202C443.438 71.9202 445.037 64.5335 448.237 57.7602C451.437 50.9335 456.157 45.4669 462.397 41.3602C468.691 37.2535 476.424 35.2002 485.598 35.2002Z" fill="#030025"/>
<path d="M409.535 35.2002C416.308 35.2002 422.068 36.5335 426.815 39.2002C431.562 41.8135 435.268 45.6269 437.935 50.6402C440.602 55.6535 442.202 61.6802 442.735 68.7202H388.495V62.4002H430.575L417.935 66.3202C417.615 59.7602 417.002 54.6402 416.095 50.9602C415.242 47.2269 414.042 44.5869 412.495 43.0402C411.002 41.4935 409.108 40.7202 406.815 40.7202C403.988 40.7202 401.588 41.5735 399.615 43.2802C397.695 44.9869 396.228 47.8669 395.215 51.9202C394.202 55.9735 393.695 61.5469 393.695 68.6402C393.695 76.9069 394.655 83.5735 396.575 88.6402C398.548 93.6535 401.455 97.3069 405.295 99.6002C409.135 101.894 413.882 103.04 419.535 103.04C422.415 103.04 425.108 102.72 427.615 102.08C430.175 101.387 432.628 100.294 434.975 98.8002C437.375 97.3069 439.775 95.3069 442.175 92.8002L444.095 94.4802C440.362 101.147 436.602 106.454 432.815 110.4C429.082 114.294 425.135 117.094 420.975 118.8C416.868 120.454 412.308 121.28 407.295 121.28C399.402 121.28 392.442 119.654 386.415 116.4C380.388 113.147 375.695 108.427 372.335 102.24C369.028 96.0535 367.375 88.6135 367.375 79.9202C367.375 71.9202 368.975 64.5335 372.175 57.7602C375.375 50.9335 380.095 45.4669 386.335 41.3602C392.628 37.2535 400.362 35.2002 409.535 35.2002Z" fill="#030025"/>
<path d="M324.159 116.72L332.159 114.24V65.36C332.159 62.48 331.705 60.16 330.799 58.4C329.945 56.64 328.639 55.36 326.879 54.56C325.119 53.7067 322.852 53.28 320.079 53.28C317.465 53.28 314.852 53.6533 312.239 54.4C309.679 55.0933 307.092 56.08 304.479 57.36L304.079 55.84C308.185 51.4133 311.705 47.8667 314.639 45.2C317.625 42.48 320.292 40.4533 322.639 39.12C325.039 37.7333 327.385 36.8267 329.679 36.4C332.025 35.92 334.665 35.68 337.599 35.68C345.012 35.68 350.585 37.7333 354.319 41.84C358.105 45.9467 359.999 51.92 359.999 59.76V114.08L368.479 116.72V119.2H324.159V116.72ZM315.279 119.2H271.039V116.72L279.519 114.08V23.2C278.825 22.56 277.865 21.68 276.639 20.56C275.412 19.44 273.945 18.1333 272.239 16.64C270.532 15.0933 268.639 13.3867 266.559 11.52V9.28L305.919 0H307.439V28.8V114.24L315.279 116.72V119.2Z" fill="#030025"/>
<path d="M212.733 54.1599V114.24L220.653 116.72V119.2H176.413V116.72L184.893 114.08V56.7999C183.986 55.8399 182.706 54.4799 181.053 52.7199C179.453 50.9599 177.453 48.9865 175.053 46.7999V44.5599L211.293 34.8799H212.733V54.1599ZM229.533 116.72L237.533 114.24V65.3599C237.533 62.4799 237.079 60.1599 236.173 58.3999C235.319 56.6399 234.013 55.3599 232.253 54.5599C230.493 53.7065 228.226 53.2799 225.453 53.2799C222.786 53.2799 220.173 53.6532 217.613 54.3999C215.053 55.0932 212.466 56.0799 209.853 57.3599L209.453 55.8399C213.559 51.4132 217.079 47.8665 220.013 45.1999C222.999 42.4799 225.666 40.4532 228.013 39.1199C230.359 37.7332 232.706 36.8265 235.053 36.3999C237.399 35.9199 240.039 35.6799 242.973 35.6799C250.386 35.6799 255.959 37.7332 259.693 41.8399C263.479 45.9465 265.373 51.9199 265.373 59.7599V114.08L273.853 116.72V119.2H229.533V116.72Z" fill="#030025"/>
<path d="M133.596 116.72L141.596 114.24V65.36C141.596 62.48 141.143 60.16 140.236 58.4C139.383 56.64 138.076 55.36 136.316 54.56C134.556 53.7067 132.289 53.28 129.516 53.28C126.903 53.28 124.289 53.6533 121.676 54.4C119.116 55.0933 116.529 56.08 113.916 57.36L113.516 55.84C117.623 51.4133 121.143 47.8667 124.076 45.2C127.063 42.48 129.729 40.4533 132.076 39.12C134.476 37.7333 136.823 36.8267 139.116 36.4C141.463 35.92 144.103 35.68 147.036 35.68C154.449 35.68 160.023 37.7333 163.756 41.84C167.543 45.9467 169.436 51.92 169.436 59.76V114.08L177.916 116.72V119.2H133.596V116.72ZM124.716 119.2H80.4761V116.72L88.9561 114.08V23.2C88.2628 22.56 87.3028 21.68 86.0761 20.56C84.8494 19.44 83.3828 18.1333 81.6761 16.64C79.9694 15.0933 78.0761 13.3867 75.9961 11.52V9.28L115.356 0H116.876V28.8V114.24L124.716 116.72V119.2Z" fill="#030025"/>
<path d="M48.88 67.2802L48.72 71.4402C44.08 73.0935 40.32 74.6935 37.44 76.2402C34.56 77.7869 32.3467 79.4135 30.8 81.1202C29.3067 82.7735 28.2667 84.5869 27.68 86.5602C27.1467 88.5335 26.88 90.7735 26.88 93.2802C26.88 97.6002 27.7333 100.747 29.44 102.72C31.2 104.64 33.4667 105.6 36.24 105.6C38.0533 105.6 39.6267 105.227 40.96 104.48C42.2933 103.734 43.3333 102.56 44.08 100.96C44.8267 99.3602 45.2 97.2802 45.2 94.7202V56.7202C45.2 52.4535 44.0267 49.1202 41.68 46.7202C39.3867 44.2669 35.8933 43.0402 31.2 43.0402C28.8 43.0402 26.5867 43.1469 24.56 43.3602C22.5867 43.5735 20.9067 43.8935 19.52 44.3202L22.88 39.5202C22.5067 43.2002 22.1067 46.2669 21.68 48.7202C21.2533 51.1202 20.8 53.0669 20.32 54.5602C19.84 56.0002 19.2533 57.1735 18.56 58.0802C17.7067 59.2535 16.4 60.2135 14.64 60.9602C12.9333 61.7069 11.04 62.0802 8.96 62.0802C6.18667 62.0802 4.13333 61.6269 2.8 60.7202C1.46667 59.7602 0.8 58.4802 0.8 56.8802C0.8 54.4802 2.02667 52.0269 4.48 49.5202C6.93333 46.9602 10.1867 44.6135 14.24 42.4802C18.3467 40.2935 22.9333 38.5335 28 37.2002C33.0667 35.8669 38.2133 35.2002 43.44 35.2002C50.64 35.2002 56.4 36.2402 60.72 38.3202C65.0933 40.3469 68.24 43.2802 70.16 47.1202C72.08 50.9069 73.04 55.3869 73.04 60.5602V103.6C73.04 104.934 73.2533 106.027 73.68 106.88C74.1067 107.734 74.72 108.374 75.52 108.8C76.3733 109.174 77.36 109.36 78.48 109.36C79.76 109.36 81.04 109.2 82.32 108.88C83.6533 108.507 85.0133 107.974 86.4 107.28V111.28C82.2933 115.12 78.4267 117.76 74.8 119.2C71.1733 120.587 67.0667 121.28 62.48 121.28C58.3733 121.28 55.0667 120.534 52.56 119.04C50.1067 117.494 48.2933 115.12 47.12 111.92C46 108.667 45.36 104.534 45.2 99.5202L46.32 100.24C45.2533 104.934 43.6533 108.827 41.52 111.92C39.44 115.014 36.9067 117.334 33.92 118.88C30.9867 120.427 27.68 121.2 24 121.2C16.2667 121.2 10.32 119.307 6.16 115.52C2.05333 111.68 0 106.48 0 99.9202C0 96.6135 0.559999 93.6535 1.68 91.0402C2.85333 88.3735 5.09333 85.8669 8.4 83.5202C11.76 81.1202 16.6667 78.6402 23.12 76.0802C29.6267 73.4669 38.2133 70.5335 48.88 67.2802Z" fill="#030025"/>
</g>
<defs>
<clipPath id="clip0_641_769">
<rect width="825" height="121" fill="white"/>
</clipPath>
</defs>
</svg>
