<svg width="1592" height="210" viewBox="0 0 1592 210" fill="none" xmlns="http://www.w3.org/2000/svg">
<g clip-path="url(#clip0_623_9623)">
<path d="M365.698 200.4C371.485 200.4 377.038 199.513 382.358 197.74C387.678 195.967 392.765 193.213 397.618 189.48L390.338 195.64L422.538 147.06H427.298L415.398 202.5C405.318 205.113 395.705 206.933 386.558 207.96C377.411 209.08 367.285 209.64 356.178 209.64C338.911 209.64 323.231 207.447 309.138 203.06C295.045 198.58 282.911 191.907 272.738 183.04C262.658 174.08 254.911 163.02 249.498 149.86C244.085 136.7 241.378 121.44 241.378 104.08C241.378 83.8267 246.138 66.0467 255.658 50.74C265.271 35.4333 278.618 23.5333 295.698 15.04C312.778 6.45332 332.658 2.15999 355.338 2.15999C363.551 2.15999 370.971 2.57999 377.598 3.42C384.225 4.16666 391.691 5.47333 399.998 7.34L387.678 10.84L407.978 -4.14001H410.218L425.058 72.02L420.438 73.42L385.858 19.52L396.778 32.68C388.565 24.6533 381.005 19.24 374.098 16.44C367.191 13.64 360.051 12.24 352.678 12.24C345.025 12.24 337.931 13.6867 331.398 16.58C324.958 19.4733 319.311 24.1867 314.458 30.72C309.605 37.16 305.825 45.7467 303.118 56.48C300.411 67.12 299.058 80.28 299.058 95.96C299.058 111.64 300.785 125.92 304.238 138.8C307.785 151.587 312.591 162.6 318.658 171.84C324.818 180.987 331.911 188.033 339.938 192.98C347.965 197.927 356.551 200.4 365.698 200.4ZM520.122 115.14L519.842 122.42C511.722 125.313 505.142 128.113 500.102 130.82C495.062 133.527 491.189 136.373 488.482 139.36C485.869 142.253 484.049 145.427 483.022 148.88C482.089 152.333 481.622 156.253 481.622 160.64C481.622 168.2 483.116 173.707 486.102 177.16C489.182 180.52 493.149 182.2 498.002 182.2C501.176 182.2 503.929 181.547 506.262 180.24C508.596 178.933 510.416 176.88 511.722 174.08C513.029 171.28 513.682 167.64 513.682 163.16V96.66C513.682 89.1933 511.629 83.36 507.522 79.16C503.509 74.8667 497.396 72.72 489.182 72.72C484.982 72.72 481.109 72.9067 477.562 73.28C474.109 73.6533 471.169 74.2133 468.742 74.96L474.622 66.56C473.969 73 473.269 78.3667 472.522 82.66C471.776 86.86 470.982 90.2667 470.142 92.88C469.302 95.4 468.276 97.4533 467.062 99.04C465.569 101.093 463.282 102.773 460.202 104.08C457.216 105.387 453.902 106.04 450.262 106.04C445.409 106.04 441.816 105.247 439.482 103.66C437.149 101.98 435.982 99.74 435.982 96.94C435.982 92.74 438.129 88.4467 442.422 84.06C446.716 79.58 452.409 75.4733 459.502 71.74C466.689 67.9133 474.716 64.8333 483.582 62.5C492.449 60.1667 501.456 59 510.602 59C523.202 59 533.282 60.82 540.842 64.46C548.496 68.0067 554.002 73.14 557.362 79.86C560.722 86.4867 562.402 94.3267 562.402 103.38V178.7C562.402 181.033 562.776 182.947 563.522 184.44C564.269 185.933 565.342 187.053 566.742 187.8C568.236 188.453 569.962 188.78 571.922 188.78C574.162 188.78 576.402 188.5 578.642 187.94C580.976 187.287 583.356 186.353 585.782 185.14V192.14C578.596 198.86 571.829 203.48 565.482 206C559.136 208.427 551.949 209.64 543.922 209.64C536.736 209.64 530.949 208.333 526.562 205.72C522.269 203.013 519.096 198.86 517.042 193.26C515.082 187.567 513.962 180.333 513.682 171.56L515.642 172.82C513.776 181.033 510.976 187.847 507.242 193.26C503.602 198.673 499.169 202.733 493.942 205.44C488.809 208.147 483.022 209.5 476.582 209.5C463.049 209.5 452.642 206.187 445.362 199.56C438.176 192.84 434.582 183.74 434.582 172.26C434.582 166.473 435.562 161.293 437.522 156.72C439.576 152.053 443.496 147.667 449.282 143.56C455.162 139.36 463.749 135.02 475.042 130.54C486.429 125.967 501.456 120.833 520.122 115.14ZM645.696 59C653.536 59 660.396 59.6067 666.276 60.82C672.249 61.94 678.316 63.6667 684.476 66L690.216 105.06H685.736L662.776 66.98L675.516 79.3C670.382 74.7267 665.482 71.5067 660.816 69.64C656.149 67.68 651.156 66.7 645.836 66.7C637.716 66.7 631.556 68.1933 627.356 71.18C623.156 74.0733 621.056 78.5067 621.056 84.48C621.056 87.84 621.849 90.8733 623.436 93.58C625.116 96.2867 628.429 98.9467 633.376 101.56C638.416 104.173 646.069 107.067 656.336 110.24C663.896 112.573 670.242 115.327 675.376 118.5C680.602 121.673 684.756 125.267 687.836 129.28C691.009 133.293 693.296 137.727 694.696 142.58C696.096 147.433 696.796 152.753 696.796 158.54C696.796 168.527 694.042 177.393 688.536 185.14C683.122 192.793 675.609 198.813 665.996 203.2C656.382 207.493 645.276 209.64 632.676 209.64C623.342 209.64 615.362 208.94 608.736 207.54C602.109 206.14 596.369 204.273 591.516 201.94L583.956 157H589.136L615.736 202.08L607.196 193.96C609.716 195.733 612.422 197.227 615.316 198.44C618.302 199.56 621.382 200.447 624.556 201.1C627.729 201.66 630.856 201.94 633.936 201.94C642.056 201.94 648.822 199.933 654.236 195.92C659.649 191.907 662.356 185.84 662.356 177.72C662.356 174.547 661.749 171.653 660.536 169.04C659.416 166.427 657.502 164 654.796 161.76C652.182 159.427 648.589 157.233 644.016 155.18C639.442 153.033 633.702 150.98 626.796 149.02C617.556 146.22 609.996 142.907 604.116 139.08C598.329 135.253 594.036 130.633 591.236 125.22C588.529 119.807 587.176 113.553 587.176 106.46C587.176 96.8467 589.696 88.4933 594.736 81.4C599.776 74.3067 606.682 68.8 615.456 64.88C624.322 60.96 634.402 59 645.696 59ZM765.264 59C773.104 59 779.964 59.6067 785.845 60.82C791.818 61.94 797.885 63.6667 804.044 66L809.785 105.06H805.305L782.344 66.98L795.084 79.3C789.951 74.7267 785.051 71.5067 780.384 69.64C775.718 67.68 770.725 66.7 765.404 66.7C757.284 66.7 751.124 68.1933 746.924 71.18C742.724 74.0733 740.624 78.5067 740.624 84.48C740.624 87.84 741.418 90.8733 743.004 93.58C744.684 96.2867 747.998 98.9467 752.944 101.56C757.984 104.173 765.638 107.067 775.904 110.24C783.464 112.573 789.811 115.327 794.944 118.5C800.171 121.673 804.324 125.267 807.404 129.28C810.578 133.293 812.865 137.727 814.265 142.58C815.665 147.433 816.364 152.753 816.364 158.54C816.364 168.527 813.611 177.393 808.104 185.14C802.691 192.793 795.178 198.813 785.564 203.2C775.951 207.493 764.844 209.64 752.244 209.64C742.911 209.64 734.931 208.94 728.304 207.54C721.678 206.14 715.938 204.273 711.084 201.94L703.524 157H708.704L735.304 202.08L726.764 193.96C729.284 195.733 731.991 197.227 734.884 198.44C737.871 199.56 740.951 200.447 744.124 201.1C747.298 201.66 750.424 201.94 753.504 201.94C761.625 201.94 768.391 199.933 773.804 195.92C779.218 191.907 781.925 185.84 781.925 177.72C781.925 174.547 781.318 171.653 780.104 169.04C778.984 166.427 777.071 164 774.364 161.76C771.751 159.427 768.158 157.233 763.584 155.18C759.011 153.033 753.271 150.98 746.364 149.02C737.124 146.22 729.564 142.907 723.684 139.08C717.898 135.253 713.604 130.633 710.804 125.22C708.098 119.807 706.744 113.553 706.744 106.46C706.744 96.8467 709.264 88.4933 714.304 81.4C719.344 74.3067 726.251 68.8 735.024 64.88C743.891 60.96 753.971 59 765.264 59ZM909.454 115.14L909.174 122.42C901.054 125.313 894.474 128.113 889.434 130.82C884.394 133.527 880.52 136.373 877.814 139.36C875.2 142.253 873.38 145.427 872.354 148.88C871.42 152.333 870.954 156.253 870.954 160.64C870.954 168.2 872.447 173.707 875.434 177.16C878.514 180.52 882.48 182.2 887.334 182.2C890.507 182.2 893.26 181.547 895.594 180.24C897.927 178.933 899.747 176.88 901.054 174.08C902.36 171.28 903.014 167.64 903.014 163.16V96.66C903.014 89.1933 900.96 83.36 896.854 79.16C892.84 74.8667 886.727 72.72 878.514 72.72C874.314 72.72 870.44 72.9067 866.894 73.28C863.44 73.6533 860.5 74.2133 858.074 74.96L863.954 66.56C863.3 73 862.6 78.3667 861.854 82.66C861.107 86.86 860.314 90.2667 859.474 92.88C858.634 95.4 857.607 97.4533 856.394 99.04C854.9 101.093 852.614 102.773 849.534 104.08C846.547 105.387 843.234 106.04 839.594 106.04C834.74 106.04 831.147 105.247 828.814 103.66C826.48 101.98 825.314 99.74 825.314 96.94C825.314 92.74 827.46 88.4467 831.754 84.06C836.047 79.58 841.74 75.4733 848.834 71.74C856.02 67.9133 864.047 64.8333 872.914 62.5C881.78 60.1667 890.787 59 899.934 59C912.534 59 922.614 60.82 930.174 64.46C937.827 68.0067 943.334 73.14 946.694 79.86C950.054 86.4867 951.734 94.3267 951.734 103.38V178.7C951.734 181.033 952.107 182.947 952.854 184.44C953.6 185.933 954.674 187.053 956.074 187.8C957.567 188.453 959.294 188.78 961.254 188.78C963.494 188.78 965.734 188.5 967.974 187.94C970.307 187.287 972.687 186.353 975.114 185.14V192.14C967.927 198.86 961.16 203.48 954.814 206C948.467 208.427 941.28 209.64 933.254 209.64C926.067 209.64 920.28 208.333 915.894 205.72C911.6 203.013 908.427 198.86 906.374 193.26C904.414 187.567 903.294 180.333 903.014 171.56L904.974 172.82C903.107 181.033 900.307 187.847 896.574 193.26C892.934 198.673 888.5 202.733 883.274 205.44C878.14 208.147 872.354 209.5 865.914 209.5C852.38 209.5 841.974 206.187 834.694 199.56C827.507 192.84 823.914 183.74 823.914 172.26C823.914 166.473 824.894 161.293 826.854 156.72C828.907 152.053 832.827 147.667 838.614 143.56C844.494 139.36 853.08 135.02 864.374 130.54C875.76 125.967 890.787 120.833 909.454 115.14ZM1036.15 92.18V197.32L1050.01 201.66V206H972.587V201.66L987.427 197.04V96.8C985.84 95.12 983.6 92.74 980.707 89.66C977.907 86.58 974.407 83.1267 970.207 79.3V75.38L1033.63 58.44H1036.15V92.18ZM1065.55 201.66L1079.55 197.32V111.78C1079.55 106.74 1078.75 102.68 1077.17 99.6C1075.67 96.52 1073.39 94.28 1070.31 92.88C1067.23 91.3867 1063.26 90.64 1058.41 90.64C1053.74 90.64 1049.17 91.2933 1044.69 92.6C1040.21 93.8133 1035.68 95.54 1031.11 97.78L1030.41 95.12C1037.59 87.3733 1043.75 81.1667 1048.89 76.5C1054.11 71.74 1058.78 68.1933 1062.89 65.86C1066.99 63.4333 1071.1 61.8467 1075.21 61.1C1079.31 60.26 1083.93 59.84 1089.07 59.84C1102.04 59.84 1111.79 63.4333 1118.33 70.62C1124.95 77.8067 1128.27 88.26 1128.27 101.98V197.04L1143.11 201.66V206H1065.55V201.66ZM1246.82 92.04C1246.82 84.5733 1244.91 78.6933 1241.08 74.4C1237.35 70.1067 1232.17 67.96 1225.54 67.96C1219.66 67.96 1214.62 69.92 1210.42 73.84C1206.22 77.76 1202.96 84.1067 1200.62 92.88C1198.38 101.653 1197.26 113.413 1197.26 128.16C1197.26 141.88 1198.38 152.8 1200.62 160.92C1202.86 169.04 1206.27 174.92 1210.84 178.56C1215.51 182.107 1221.44 183.88 1228.62 183.88C1233.66 183.88 1238.33 183.04 1242.62 181.36C1246.92 179.68 1250.79 177.02 1254.24 173.38L1254.94 177.44C1249.62 184.16 1244.82 189.62 1240.52 193.82C1236.32 198.02 1232.36 201.287 1228.62 203.62C1224.98 205.953 1221.34 207.54 1217.7 208.38C1214.06 209.22 1210.19 209.64 1206.08 209.64C1193.95 209.64 1183.45 206.793 1174.58 201.1C1165.72 195.407 1158.86 187.427 1154 177.16C1149.24 166.893 1146.86 154.9 1146.86 141.18C1146.86 128.02 1148.92 116.353 1153.02 106.18C1157.13 95.9133 1162.92 87.28 1170.38 80.28C1177.85 73.28 1186.62 68.0067 1196.7 64.46C1206.78 60.82 1217.8 59 1229.74 59C1235.62 59 1241.46 59.3733 1247.24 60.12C1253.12 60.8667 1258.86 62.08 1264.46 63.76C1270.06 65.3467 1275.48 67.4467 1280.7 70.06L1246.82 71.32V35.2C1245.7 34.2667 1243.84 32.7733 1241.22 30.72C1238.7 28.5733 1235.9 26.24 1232.82 23.72C1229.74 21.1067 1226.85 18.7267 1224.14 16.58V12.66L1293.72 -2.60002H1296.24L1295.68 24.7V184.3C1296.52 184.86 1297.74 185.607 1299.32 186.54C1301 187.473 1302.82 188.5 1304.78 189.62C1306.84 190.74 1308.84 191.86 1310.8 192.98C1312.86 194.1 1314.63 195.127 1316.12 196.06V199.84L1252.28 211.18H1249.48L1246.82 186.68V92.04ZM1428.46 59.7C1433.78 59.7 1437.93 61.3333 1440.92 64.6C1444 67.7733 1445.54 72.02 1445.54 77.34C1445.54 84.06 1443.34 89.8 1438.96 94.56C1434.57 99.2267 1429.2 101.56 1422.86 101.56C1418.84 101.56 1415.39 101.233 1412.5 100.58C1409.7 99.8333 1406.9 99.1333 1404.1 98.48C1401.39 97.7333 1398.22 97.36 1394.58 97.36C1391.87 97.36 1389.4 97.6867 1387.16 98.34C1384.92 98.9933 1382.82 99.9733 1380.86 101.28C1378.99 102.493 1377.03 104.173 1374.98 106.32L1374.84 99.74C1382.77 90.78 1389.4 83.64 1394.72 78.32C1400.13 73 1404.75 69.0333 1408.58 66.42C1412.5 63.7133 1416 61.94 1419.08 61.1C1422.16 60.1667 1425.28 59.7 1428.46 59.7ZM1379.74 87.7V197.04L1397.52 201.66V206H1316.18V201.66L1331.02 197.04V96.8C1329.8 95.5867 1328.54 94.3267 1327.24 93.02C1325.93 91.7133 1324.2 90.0333 1322.06 87.98C1320 85.8333 1317.25 82.94 1313.8 79.3V75.38L1377.22 58.44H1379.74V87.7ZM1527.73 115.14L1527.45 122.42C1519.33 125.313 1512.75 128.113 1507.71 130.82C1502.67 133.527 1498.8 136.373 1496.09 139.36C1493.48 142.253 1491.66 145.427 1490.63 148.88C1489.7 152.333 1489.23 156.253 1489.23 160.64C1489.23 168.2 1490.72 173.707 1493.71 177.16C1496.79 180.52 1500.76 182.2 1505.61 182.2C1508.78 182.2 1511.54 181.547 1513.87 180.24C1516.2 178.933 1518.02 176.88 1519.33 174.08C1520.64 171.28 1521.29 167.64 1521.29 163.16V96.66C1521.29 89.1933 1519.24 83.36 1515.13 79.16C1511.12 74.8667 1505 72.72 1496.79 72.72C1492.59 72.72 1488.72 72.9067 1485.17 73.28C1481.72 73.6533 1478.78 74.2133 1476.35 74.96L1482.23 66.56C1481.58 73 1480.88 78.3667 1480.13 82.66C1479.38 86.86 1478.59 90.2667 1477.75 92.88C1476.91 95.4 1475.88 97.4533 1474.67 99.04C1473.18 101.093 1470.89 102.773 1467.81 104.08C1464.82 105.387 1461.51 106.04 1457.87 106.04C1453.02 106.04 1449.42 105.247 1447.09 103.66C1444.76 101.98 1443.59 99.74 1443.59 96.94C1443.59 92.74 1445.74 88.4467 1450.03 84.06C1454.32 79.58 1460.02 75.4733 1467.11 71.74C1474.3 67.9133 1482.32 64.8333 1491.19 62.5C1500.06 60.1667 1509.06 59 1518.21 59C1530.81 59 1540.89 60.82 1548.45 64.46C1556.1 68.0067 1561.61 73.14 1564.97 79.86C1568.33 86.4867 1570.01 94.3267 1570.01 103.38V178.7C1570.01 181.033 1570.38 182.947 1571.13 184.44C1571.88 185.933 1572.95 187.053 1574.35 187.8C1575.84 188.453 1577.57 188.78 1579.53 188.78C1581.77 188.78 1584.01 188.5 1586.25 187.94C1588.58 187.287 1590.96 186.353 1593.39 185.14V192.14C1586.2 198.86 1579.44 203.48 1573.09 206C1566.74 208.427 1559.56 209.64 1551.53 209.64C1544.34 209.64 1538.56 208.333 1534.17 205.72C1529.88 203.013 1526.7 198.86 1524.65 193.26C1522.69 187.567 1521.57 180.333 1521.29 171.56L1523.25 172.82C1521.38 181.033 1518.58 187.847 1514.85 193.26C1511.21 198.673 1506.78 202.733 1501.55 205.44C1496.42 208.147 1490.63 209.5 1484.19 209.5C1470.66 209.5 1460.25 206.187 1452.97 199.56C1445.78 192.84 1442.19 183.74 1442.19 172.26C1442.19 166.473 1443.17 161.293 1445.13 156.72C1447.18 152.053 1451.1 147.667 1456.89 143.56C1462.77 139.36 1471.36 135.02 1482.65 130.54C1494.04 125.967 1509.06 120.833 1527.73 115.14Z" fill="black"/>
<path fill-rule="evenodd" clip-rule="evenodd" d="M8.88515 209.704C3.97801 209.54 0.112314 205.426 0.488729 200.531C7.09916 114.56 66.9376 49.6252 125.541 24.0122C130.04 22.046 135.162 24.3997 136.886 28.9969V28.9969C138.61 33.5941 136.281 38.6925 131.794 40.6843C78.8636 64.1764 24.6039 123.345 18.2788 201.12C17.8808 206.014 13.7923 209.868 8.88515 209.704V209.704Z" fill="#FF0050"/>
<path fill-rule="evenodd" clip-rule="evenodd" d="M13.542 143.536C74.2095 22.9782 158.571 2.0653 199.406 12.2678C189.604 21.1582 183.979 34.079 179.894 48.6541C149.807 60.6698 111.491 83.075 93.3202 117.457C104.081 103.921 141.363 84.109 173.081 78.8696C161.712 134.685 147.875 191.666 13.542 143.536Z" fill="#FF0050"/>
</g>
<defs>
<clipPath id="clip0_623_9623">
<rect width="1592" height="210" fill="white"/>
</clipPath>
</defs>
</svg>
