<svg width="410" height="90" viewBox="0 0 410 90" fill="none" xmlns="http://www.w3.org/2000/svg">
<g clip-path="url(#clip0_473_7992)">
<path d="M39.7644 79.7795C41.4177 79.7795 43.0044 79.5261 44.5244 79.0195C46.0444 78.5128 47.4977 77.7261 48.8844 76.6595L46.8044 78.4195L56.0044 64.5395H57.3644L53.9644 80.3795C51.0844 81.1261 48.3377 81.6461 45.7244 81.9395C43.111 82.2595 40.2177 82.4195 37.0444 82.4195C32.111 82.4195 27.631 81.7928 23.6044 80.5395C19.5777 79.2595 16.111 77.3528 13.2044 74.8195C10.3244 72.2595 8.11105 69.0995 6.56438 65.3395C5.01771 61.5795 4.24438 57.2195 4.24438 52.2595C4.24438 46.4728 5.60438 41.3928 8.32438 37.0195C11.071 32.6461 14.8844 29.2461 19.7644 26.8195C24.6444 24.3661 30.3244 23.1395 36.8044 23.1395C39.151 23.1395 41.271 23.2595 43.1644 23.4995C45.0577 23.7128 47.191 24.0861 49.5644 24.6195L46.0444 25.6195L51.8444 21.3395H52.4844L56.7244 43.0995L55.4044 43.4995L45.5244 28.0995L48.6444 31.8595C46.2977 29.5661 44.1377 28.0195 42.1644 27.2195C40.191 26.4195 38.151 26.0195 36.0444 26.0195C33.8577 26.0195 31.831 26.4328 29.9644 27.2595C28.1244 28.0861 26.511 29.4328 25.1244 31.2995C23.7377 33.1395 22.6577 35.5928 21.8844 38.6595C21.111 41.6995 20.7244 45.4595 20.7244 49.9395C20.7244 54.4195 21.2177 58.4995 22.2044 62.1795C23.2177 65.8328 24.591 68.9795 26.3244 71.6195C28.0844 74.2328 30.111 76.2461 32.4044 77.6595C34.6977 79.0728 37.151 79.7795 39.7644 79.7795ZM85.1656 80.1395L89.1656 78.8995V54.4595C89.1656 53.0195 88.939 51.8595 88.4856 50.9795C88.059 50.0995 87.4056 49.4595 86.5256 49.0595C85.6456 48.6328 84.5123 48.4195 83.1256 48.4195C81.819 48.4195 80.5123 48.6061 79.2056 48.9795C77.9256 49.3261 76.6323 49.8195 75.3256 50.4595L75.1256 49.6995C77.179 47.4861 78.939 45.7128 80.4056 44.3795C81.899 43.0195 83.2323 42.0061 84.4056 41.3395C85.6056 40.6461 86.779 40.1928 87.9256 39.9795C89.099 39.7395 90.419 39.6195 91.8856 39.6195C95.5923 39.6195 98.379 40.6461 100.246 42.6995C102.139 44.7528 103.086 47.7395 103.086 51.6595V78.8195L107.326 80.1395V81.3795H85.1656V80.1395ZM80.7256 81.3795H58.6056V80.1395L62.8456 78.8195V33.3795C62.499 33.0595 62.019 32.6195 61.4056 32.0595C60.7923 31.4995 60.059 30.8461 59.2056 30.0995C58.3523 29.3261 57.4056 28.4728 56.3656 27.5395V26.4195L76.0456 21.7795H76.8056V36.1795V78.8995L80.7256 80.1395V81.3795ZM132.814 55.4195L132.734 57.4995C130.414 58.3261 128.534 59.1261 127.094 59.8995C125.654 60.6728 124.547 61.4861 123.774 62.3395C123.027 63.1661 122.507 64.0728 122.214 65.0595C121.947 66.0461 121.814 67.1661 121.814 68.4195C121.814 70.5795 122.24 72.1528 123.094 73.1395C123.974 74.0995 125.107 74.5795 126.494 74.5795C127.4 74.5795 128.187 74.3928 128.854 74.0195C129.52 73.6461 130.04 73.0595 130.414 72.2595C130.787 71.4595 130.974 70.4195 130.974 69.1395V50.1395C130.974 48.0061 130.387 46.3395 129.214 45.1395C128.067 43.9128 126.32 43.2995 123.974 43.2995C122.774 43.2995 121.667 43.3528 120.654 43.4595C119.667 43.5661 118.827 43.7261 118.134 43.9395L119.814 41.5395C119.627 43.3795 119.427 44.9128 119.214 46.1395C119 47.3395 118.774 48.3128 118.534 49.0595C118.294 49.7795 118 50.3661 117.654 50.8195C117.227 51.4061 116.574 51.8861 115.694 52.2595C114.84 52.6328 113.894 52.8195 112.854 52.8195C111.467 52.8195 110.44 52.5928 109.774 52.1395C109.107 51.6595 108.774 51.0195 108.774 50.2195C108.774 49.0195 109.387 47.7928 110.614 46.5395C111.84 45.2595 113.467 44.0861 115.494 43.0195C117.547 41.9261 119.84 41.0461 122.374 40.3795C124.907 39.7128 127.48 39.3795 130.094 39.3795C133.694 39.3795 136.574 39.8995 138.734 40.9395C140.92 41.9528 142.494 43.4195 143.454 45.3395C144.414 47.2328 144.894 49.4728 144.894 52.0595V73.5795C144.894 74.2461 145 74.7928 145.214 75.2195C145.427 75.6461 145.734 75.9661 146.134 76.1795C146.56 76.3661 147.054 76.4595 147.614 76.4595C148.254 76.4595 148.894 76.3795 149.534 76.2195C150.2 76.0328 150.88 75.7661 151.574 75.4195V77.4195C149.52 79.3395 147.587 80.6595 145.774 81.3795C143.96 82.0728 141.907 82.4195 139.614 82.4195C137.56 82.4195 135.907 82.0461 134.654 81.2995C133.427 80.5261 132.52 79.3395 131.934 77.7395C131.374 76.1128 131.054 74.0461 130.974 71.5395L131.534 71.8995C131 74.2461 130.2 76.1928 129.134 77.7395C128.094 79.2861 126.827 80.4461 125.334 81.2195C123.867 81.9928 122.214 82.3795 120.374 82.3795C116.507 82.3795 113.534 81.4328 111.454 79.5395C109.4 77.6195 108.374 75.0195 108.374 71.7395C108.374 70.0861 108.654 68.6061 109.214 67.2995C109.8 65.9661 110.92 64.7128 112.574 63.5395C114.254 62.3395 116.707 61.0995 119.934 59.8195C123.187 58.5128 127.48 57.0461 132.814 55.4195ZM169.012 48.8595V78.8995L172.972 80.1395V81.3795H150.852V80.1395L155.092 78.8195V50.1795C154.639 49.6995 153.999 49.0195 153.172 48.1395C152.372 47.2595 151.372 46.2728 150.172 45.1795V44.0595L168.292 39.2195H169.012V48.8595ZM177.412 80.1395L181.412 78.8995V54.4595C181.412 53.0195 181.185 51.8595 180.732 50.9795C180.305 50.0995 179.652 49.4595 178.772 49.0595C177.892 48.6328 176.759 48.4195 175.372 48.4195C174.039 48.4195 172.732 48.6061 171.452 48.9795C170.172 49.3261 168.879 49.8195 167.572 50.4595L167.372 49.6995C169.425 47.4861 171.185 45.7128 172.652 44.3795C174.145 43.0195 175.479 42.0061 176.652 41.3395C177.825 40.6461 178.999 40.1928 180.172 39.9795C181.345 39.7395 182.665 39.6195 184.132 39.6195C187.839 39.6195 190.625 40.6461 192.492 42.6995C194.385 44.7528 195.332 47.7395 195.332 51.6595V78.8195L199.572 80.1395V81.3795H177.412V80.1395ZM223.565 39.3795C227.005 39.3795 229.738 39.7395 231.765 40.4595C233.818 41.1795 235.285 42.0995 236.165 43.2195C237.072 44.3128 237.525 45.4461 237.525 46.6195C237.525 47.6061 237.272 48.4861 236.765 49.2595C236.285 50.0061 235.658 50.5928 234.885 51.0195C234.112 51.4195 233.285 51.6195 232.405 51.6195C232.112 51.6195 231.672 51.2995 231.085 50.6595C230.498 49.9928 229.792 49.1928 228.965 48.2595C228.165 47.2995 227.285 46.3528 226.325 45.4195C225.365 44.4595 224.365 43.6595 223.325 43.0195C222.312 42.3528 221.312 42.0195 220.325 42.0195C219.018 42.0195 217.858 42.4328 216.845 43.2595C215.858 44.0595 215.085 45.4061 214.525 47.2995C213.965 49.1661 213.685 51.7261 213.685 54.9795C213.685 59.4328 214.165 63.0061 215.125 65.6995C216.085 68.3661 217.485 70.2995 219.325 71.4995C221.165 72.6995 223.418 73.2995 226.085 73.2995C228.325 73.2995 230.298 72.9528 232.005 72.2595C233.738 71.5395 235.485 70.2728 237.245 68.4595L238.205 69.2595C236.392 72.5661 234.565 75.1795 232.725 77.0995C230.912 79.0195 228.992 80.3928 226.965 81.2195C224.965 82.0195 222.738 82.4195 220.285 82.4195C216.365 82.4195 212.925 81.6061 209.965 79.9795C207.005 78.3528 204.698 75.9928 203.045 72.8995C201.392 69.7795 200.565 66.0328 200.565 61.6595C200.565 58.4595 201.152 55.5128 202.325 52.8195C203.498 50.0995 205.138 47.7395 207.245 45.7395C209.352 43.7128 211.792 42.1528 214.565 41.0595C217.365 39.9395 220.365 39.3795 223.565 39.3795ZM260.144 39.3795C263.531 39.3795 266.411 40.0461 268.784 41.3795C271.158 42.6861 273.011 44.5928 274.344 47.0995C275.678 49.6061 276.478 52.6195 276.744 56.1395H249.624V52.9795H270.664L264.344 54.9395C264.184 51.6595 263.878 49.0995 263.424 47.2595C262.998 45.3928 262.398 44.0728 261.624 43.2995C260.878 42.5261 259.931 42.1395 258.784 42.1395C257.371 42.1395 256.171 42.5661 255.184 43.4195C254.224 44.2728 253.491 45.7128 252.984 47.7395C252.478 49.7661 252.224 52.5528 252.224 56.0995C252.224 60.2328 252.704 63.5661 253.664 66.0995C254.651 68.6061 256.104 70.4328 258.024 71.5795C259.944 72.7261 262.318 73.2995 265.144 73.2995C266.584 73.2995 267.931 73.1395 269.184 72.8195C270.464 72.4728 271.691 71.9261 272.864 71.1795C274.064 70.4328 275.264 69.4328 276.464 68.1795L277.424 69.0195C275.558 72.3528 273.678 75.0061 271.784 76.9795C269.918 78.9261 267.944 80.3261 265.864 81.1795C263.811 82.0061 261.531 82.4195 259.024 82.4195C255.078 82.4195 251.598 81.6061 248.584 79.9795C245.571 78.3528 243.224 75.9928 241.544 72.8995C239.891 69.8061 239.064 66.0861 239.064 61.7395C239.064 57.7395 239.864 54.0461 241.464 50.6595C243.064 47.2461 245.424 44.5128 248.544 42.4595C251.691 40.4061 255.558 39.3795 260.144 39.3795ZM296.096 78.8195L300.336 80.1395V81.3795H277.896V80.1395L282.136 78.8195V32.5795C281.789 32.2861 281.309 31.8861 280.696 31.3795C280.082 30.8728 279.349 30.2728 278.496 29.5795C277.642 28.8861 276.696 28.1128 275.656 27.2595V26.1395L295.336 21.7795H296.096V29.8595V78.8195ZM319.086 78.8195L323.326 80.1395V81.3795H300.886V80.1395L305.126 78.8195V32.5795C304.78 32.2861 304.3 31.8861 303.686 31.3795C303.073 30.8728 302.34 30.2728 301.486 29.5795C300.633 28.8861 299.686 28.1128 298.646 27.2595V26.1395L318.326 21.7795H319.086V29.8595V78.8195ZM346.197 79.7795C347.877 79.7795 349.224 79.1661 350.237 77.9395C351.277 76.7128 352.024 74.7928 352.477 72.1795C352.93 69.5395 353.157 66.1395 353.157 61.9795C353.157 57.5528 352.93 53.8728 352.477 50.9395C352.05 47.9795 351.317 45.7661 350.277 44.2995C349.264 42.8061 347.877 42.0595 346.117 42.0595C344.41 42.0595 343.05 42.6728 342.037 43.8995C341.024 45.1261 340.29 47.0461 339.837 49.6595C339.384 52.2728 339.157 55.6595 339.157 59.8195C339.157 64.2195 339.37 67.8995 339.797 70.8595C340.224 73.8195 340.944 76.0461 341.957 77.5395C342.997 79.0328 344.41 79.7795 346.197 79.7795ZM345.677 82.4195C341.544 82.4195 337.89 81.5128 334.717 79.6995C331.544 77.8861 329.064 75.3795 327.277 72.1795C325.517 68.9528 324.637 65.2461 324.637 61.0595C324.637 56.7661 325.584 52.9928 327.477 49.7395C329.397 46.4861 332.01 43.9528 335.317 42.1395C338.65 40.2995 342.41 39.3795 346.597 39.3795C350.837 39.3795 354.53 40.2861 357.677 42.0995C360.824 43.8861 363.277 46.3928 365.037 49.6195C366.797 52.8195 367.677 56.5261 367.677 60.7395C367.677 65.0328 366.704 68.8195 364.757 72.0995C362.81 75.3528 360.184 77.8861 356.877 79.6995C353.57 81.5128 349.837 82.4195 345.677 82.4195ZM401.657 39.5795C403.177 39.5795 404.364 40.0461 405.217 40.9795C406.097 41.8861 406.537 43.0995 406.537 44.6195C406.537 46.5395 405.91 48.1795 404.657 49.5395C403.404 50.8728 401.87 51.5395 400.057 51.5395C398.91 51.5395 397.924 51.4461 397.097 51.2595C396.297 51.0461 395.497 50.8461 394.697 50.6595C393.924 50.4461 393.017 50.3395 391.977 50.3395C391.204 50.3395 390.497 50.4328 389.857 50.6195C389.217 50.8061 388.617 51.0861 388.057 51.4595C387.524 51.8061 386.964 52.2861 386.377 52.8995L386.337 51.0195C388.604 48.4595 390.497 46.4195 392.017 44.8995C393.564 43.3795 394.884 42.2461 395.977 41.4995C397.097 40.7261 398.097 40.2195 398.977 39.9795C399.857 39.7128 400.75 39.5795 401.657 39.5795ZM387.737 47.5795V78.8195L392.817 80.1395V81.3795H369.577V80.1395L373.817 78.8195V50.1795C373.47 49.8328 373.11 49.4728 372.737 49.0995C372.364 48.7261 371.87 48.2461 371.257 47.6595C370.67 47.0461 369.884 46.2195 368.897 45.1795V44.0595L387.017 39.2195H387.737V47.5795Z" fill="white"/>
<path d="M149.079 9.12885L152.618 8.81927L154.318 28.2491L156.925 28.8562L156.978 29.4618L148.37 30.2149L148.317 29.6092L150.779 28.5586L149.079 9.12885ZM159.383 8.85381L142.328 10.3459L144.001 9.83011L141.84 15.239L141.095 15.1597L141.206 7.81L141.557 7.77932L144.152 8.98175L142.565 8.83151L158.886 7.40355L157.493 7.81457L159.823 6.18123L160.19 6.14916L161.576 13.3678L160.856 13.5754L157.789 8.62388L159.383 8.85381ZM174.179 27.3947L176.303 26.5183L175.585 18.3097C175.535 17.7359 175.381 17.2621 175.123 16.8885C174.865 16.5042 174.504 16.2307 174.04 16.0678C173.585 15.8934 173.029 15.835 172.37 15.8927C171.594 15.9605 170.883 16.1513 170.236 16.4649C169.599 16.7775 169.126 17.1241 168.817 17.5045L168.264 17.055C168.865 16.3385 169.412 15.7392 169.905 15.2571C170.409 14.774 170.889 14.3893 171.346 14.1031C171.813 13.8053 172.281 13.5877 172.751 13.4502C173.219 13.3021 173.725 13.2044 174.267 13.1569C175.648 13.0361 176.7 13.367 177.421 14.1498C178.153 14.921 178.595 16.1885 178.75 17.9525L179.472 26.2089L181.798 26.7282L181.847 27.2861L174.228 27.9526L174.179 27.3947ZM172.315 28.12L164.665 28.7893L164.616 28.2314L166.785 27.319L165.194 9.13242C165.031 8.98605 164.825 8.83808 164.576 8.68851C164.338 8.53802 164.052 8.38639 163.718 8.23364C163.383 8.08089 163 7.927 162.569 7.77199L162.533 7.35757L167.887 5.41147L168.206 5.38358L168.442 9.73157L169.957 27.0415L172.267 27.5621L172.315 28.12ZM189.534 11.8052C190.65 11.7075 191.633 11.8625 192.482 12.27C193.331 12.6775 194.03 13.3178 194.577 14.1907C195.136 15.0627 195.524 16.1422 195.744 17.4293L185.687 18.3093L185.621 17.1907L193.851 16.1655L192.464 17.0256C192.31 16.1183 192.094 15.3662 191.817 14.7695C191.55 14.1611 191.211 13.7143 190.801 13.429C190.389 13.133 189.891 13.0106 189.307 13.0617C188.616 13.1222 188.028 13.3717 187.542 13.8105C187.055 14.2492 186.704 14.8796 186.486 15.7016C186.269 16.5237 186.214 17.5404 186.32 18.7518C186.434 20.0588 186.754 21.1444 187.279 22.0085C187.804 22.8727 188.491 23.5032 189.34 23.9001C190.198 24.2855 191.18 24.4298 192.285 24.3331C192.742 24.2931 193.178 24.2014 193.594 24.058C194.019 23.903 194.424 23.6909 194.807 23.4218C195.201 23.1518 195.574 22.8247 195.926 22.4406L196.364 22.868C195.849 23.7054 195.311 24.411 194.751 24.9847C194.19 25.5477 193.58 25.9865 192.923 26.301C192.264 26.6049 191.541 26.7912 190.755 26.86C189.427 26.9763 188.221 26.7766 187.137 26.2611C186.063 25.734 185.186 24.9488 184.506 23.9055C183.836 22.8612 183.438 21.6111 183.31 20.1554C183.188 18.7527 183.346 17.4433 183.786 16.227C184.225 15.0001 184.929 13.9909 185.898 13.1994C186.866 12.3973 188.079 11.9325 189.534 11.8052Z" fill="white"/>
</g>
<defs>
<clipPath id="clip0_473_7992">
<rect width="410" height="90" fill="white"/>
</clipPath>
</defs>
</svg>
