<svg width="460" height="140" viewBox="0 0 460 140" fill="none" xmlns="http://www.w3.org/2000/svg">
<g clip-path="url(#clip0_506_9351)">
<g filter="url(#filter0_ddi_506_9351)">
<path d="M64.7644 98.7799C66.4177 98.7799 68.0044 98.5265 69.5244 98.0199C71.0444 97.5132 72.4977 96.7265 73.8844 95.6599L71.8044 97.4199L81.0044 83.5399H82.3644L78.9644 99.3799C76.0844 100.127 73.3377 100.647 70.7244 100.94C68.111 101.26 65.2177 101.42 62.0444 101.42C57.111 101.42 52.631 100.793 48.6044 99.5399C44.5777 98.2599 41.111 96.3532 38.2044 93.8199C35.3244 91.2599 33.111 88.0999 31.5644 84.3399C30.0177 80.5799 29.2444 76.2199 29.2444 71.2599C29.2444 65.4732 30.6044 60.3932 33.3244 56.0199C36.071 51.6465 39.8844 48.2465 44.7644 45.8199C49.6444 43.3665 55.3244 42.1399 61.8044 42.1399C64.151 42.1399 66.271 42.2599 68.1644 42.4999C70.0577 42.7132 72.191 43.0865 74.5644 43.6199L71.0444 44.6199L76.8444 40.3399H77.4844L81.7244 62.0999L80.4044 62.4999L70.5244 47.0999L73.6444 50.8599C71.2977 48.5665 69.1377 47.0199 67.1644 46.2199C65.191 45.4199 63.151 45.0199 61.0444 45.0199C58.8577 45.0199 56.831 45.4332 54.9644 46.2599C53.1244 47.0865 51.511 48.4332 50.1244 50.2999C48.7377 52.1399 47.6577 54.5932 46.8844 57.6599C46.111 60.6999 45.7244 64.4599 45.7244 68.9399C45.7244 73.4199 46.2177 77.4999 47.2044 81.1799C48.2177 84.8332 49.591 87.9799 51.3244 90.6199C53.0844 93.2332 55.111 95.2465 57.4044 96.6599C59.6977 98.0732 62.151 98.7799 64.7644 98.7799ZM110.166 99.1399L114.166 97.8999V73.4599C114.166 72.0199 113.939 70.8599 113.486 69.9799C113.059 69.0999 112.406 68.4599 111.526 68.0599C110.646 67.6332 109.512 67.4199 108.126 67.4199C106.819 67.4199 105.512 67.6065 104.206 67.9799C102.926 68.3265 101.632 68.8199 100.326 69.4599L100.126 68.6999C102.179 66.4865 103.939 64.7132 105.406 63.3799C106.899 62.0199 108.232 61.0065 109.406 60.3399C110.606 59.6465 111.779 59.1932 112.926 58.9799C114.099 58.7399 115.419 58.6199 116.886 58.6199C120.592 58.6199 123.379 59.6465 125.246 61.6999C127.139 63.7532 128.086 66.7399 128.086 70.6599V97.8199L132.326 99.1399V100.38H110.166V99.1399ZM105.726 100.38H83.6056V99.1399L87.8456 97.8199V52.3799C87.499 52.0599 87.019 51.6199 86.4056 51.0599C85.7923 50.4999 85.059 49.8465 84.2056 49.0999C83.3523 48.3265 82.4056 47.4732 81.3656 46.5399V45.4199L101.046 40.7799H101.806V55.1799V97.8999L105.726 99.1399V100.38ZM157.814 74.4199L157.734 76.4999C155.414 77.3265 153.534 78.1265 152.094 78.8999C150.654 79.6732 149.547 80.4865 148.774 81.3399C148.027 82.1665 147.507 83.0732 147.214 84.0599C146.947 85.0465 146.814 86.1665 146.814 87.4199C146.814 89.5799 147.24 91.1532 148.094 92.1399C148.974 93.0999 150.107 93.5799 151.494 93.5799C152.4 93.5799 153.187 93.3932 153.854 93.0199C154.52 92.6465 155.04 92.0599 155.414 91.2599C155.787 90.4599 155.974 89.4199 155.974 88.1399V69.1399C155.974 67.0065 155.387 65.3399 154.214 64.1399C153.067 62.9132 151.32 62.2999 148.974 62.2999C147.774 62.2999 146.667 62.3532 145.654 62.4599C144.667 62.5665 143.827 62.7265 143.134 62.9399L144.814 60.5399C144.627 62.3799 144.427 63.9132 144.214 65.1399C144 66.3399 143.774 67.3132 143.534 68.0599C143.294 68.7799 143 69.3665 142.654 69.8199C142.227 70.4065 141.574 70.8865 140.694 71.2599C139.84 71.6332 138.894 71.8199 137.854 71.8199C136.467 71.8199 135.44 71.5932 134.774 71.1399C134.107 70.6599 133.774 70.0199 133.774 69.2199C133.774 68.0199 134.387 66.7932 135.614 65.5399C136.84 64.2599 138.467 63.0865 140.494 62.0199C142.547 60.9265 144.84 60.0465 147.374 59.3799C149.907 58.7132 152.48 58.3799 155.094 58.3799C158.694 58.3799 161.574 58.8999 163.734 59.9399C165.92 60.9532 167.494 62.4199 168.454 64.3399C169.414 66.2332 169.894 68.4732 169.894 71.0599V92.5799C169.894 93.2465 170 93.7932 170.214 94.2199C170.427 94.6465 170.734 94.9665 171.134 95.1799C171.56 95.3665 172.054 95.4599 172.614 95.4599C173.254 95.4599 173.894 95.3799 174.534 95.2199C175.2 95.0332 175.88 94.7665 176.574 94.4199V96.4199C174.52 98.3399 172.587 99.6599 170.774 100.38C168.96 101.073 166.907 101.42 164.614 101.42C162.56 101.42 160.907 101.047 159.654 100.3C158.427 99.5265 157.52 98.3399 156.934 96.7399C156.374 95.1132 156.054 93.0465 155.974 90.5399L156.534 90.8999C156 93.2465 155.2 95.1932 154.134 96.7399C153.094 98.2865 151.827 99.4465 150.334 100.22C148.867 100.993 147.214 101.38 145.374 101.38C141.507 101.38 138.534 100.433 136.454 98.5399C134.4 96.6199 133.374 94.0199 133.374 90.7399C133.374 89.0865 133.654 87.6065 134.214 86.2999C134.8 84.9665 135.92 83.7132 137.574 82.5399C139.254 81.3399 141.707 80.0999 144.934 78.8199C148.187 77.5132 152.48 76.0465 157.814 74.4199ZM194.012 67.8599V97.8999L197.972 99.1399V100.38H175.852V99.1399L180.092 97.8199V69.1799C179.639 68.6999 178.999 68.0199 178.172 67.1399C177.372 66.2599 176.372 65.2732 175.172 64.1799V63.0599L193.292 58.2199H194.012V67.8599ZM202.412 99.1399L206.412 97.8999V73.4599C206.412 72.0199 206.185 70.8599 205.732 69.9799C205.305 69.0999 204.652 68.4599 203.772 68.0599C202.892 67.6332 201.759 67.4199 200.372 67.4199C199.039 67.4199 197.732 67.6065 196.452 67.9799C195.172 68.3265 193.879 68.8199 192.572 69.4599L192.372 68.6999C194.425 66.4865 196.185 64.7132 197.652 63.3799C199.145 62.0199 200.479 61.0065 201.652 60.3399C202.825 59.6465 203.999 59.1932 205.172 58.9799C206.345 58.7399 207.665 58.6199 209.132 58.6199C212.839 58.6199 215.625 59.6465 217.492 61.6999C219.385 63.7532 220.332 66.7399 220.332 70.6599V97.8199L224.572 99.1399V100.38H202.412V99.1399ZM248.565 58.3799C252.005 58.3799 254.738 58.7399 256.765 59.4599C258.818 60.1799 260.285 61.0999 261.165 62.2199C262.072 63.3132 262.525 64.4465 262.525 65.6199C262.525 66.6065 262.272 67.4865 261.765 68.2599C261.285 69.0065 260.658 69.5932 259.885 70.0199C259.112 70.4199 258.285 70.6199 257.405 70.6199C257.112 70.6199 256.672 70.2999 256.085 69.6599C255.498 68.9932 254.792 68.1932 253.965 67.2599C253.165 66.2999 252.285 65.3532 251.325 64.4199C250.365 63.4599 249.365 62.6599 248.325 62.0199C247.312 61.3532 246.312 61.0199 245.325 61.0199C244.018 61.0199 242.858 61.4332 241.845 62.2599C240.858 63.0599 240.085 64.4065 239.525 66.2999C238.965 68.1665 238.685 70.7265 238.685 73.9799C238.685 78.4332 239.165 82.0065 240.125 84.6999C241.085 87.3665 242.485 89.2999 244.325 90.4999C246.165 91.6999 248.418 92.2999 251.085 92.2999C253.325 92.2999 255.298 91.9532 257.005 91.2599C258.738 90.5399 260.485 89.2732 262.245 87.4599L263.205 88.2599C261.392 91.5665 259.565 94.1799 257.725 96.0999C255.912 98.0199 253.992 99.3932 251.965 100.22C249.965 101.02 247.738 101.42 245.285 101.42C241.365 101.42 237.925 100.607 234.965 98.9799C232.005 97.3532 229.698 94.9932 228.045 91.8999C226.392 88.7799 225.565 85.0332 225.565 80.6599C225.565 77.4599 226.152 74.5132 227.325 71.8199C228.498 69.0999 230.138 66.7399 232.245 64.7399C234.352 62.7132 236.792 61.1532 239.565 60.0599C242.365 58.9399 245.365 58.3799 248.565 58.3799ZM285.144 58.3799C288.531 58.3799 291.411 59.0465 293.784 60.3799C296.158 61.6865 298.011 63.5932 299.344 66.0999C300.678 68.6065 301.478 71.6199 301.744 75.1399H274.624V71.9799H295.664L289.344 73.9399C289.184 70.6599 288.878 68.0999 288.424 66.2599C287.998 64.3932 287.398 63.0732 286.624 62.2999C285.878 61.5265 284.931 61.1399 283.784 61.1399C282.371 61.1399 281.171 61.5665 280.184 62.4199C279.224 63.2732 278.491 64.7132 277.984 66.7399C277.478 68.7665 277.224 71.5532 277.224 75.0999C277.224 79.2332 277.704 82.5665 278.664 85.0999C279.651 87.6065 281.104 89.4332 283.024 90.5799C284.944 91.7265 287.318 92.2999 290.144 92.2999C291.584 92.2999 292.931 92.1399 294.184 91.8199C295.464 91.4732 296.691 90.9265 297.864 90.1799C299.064 89.4332 300.264 88.4332 301.464 87.1799L302.424 88.0199C300.558 91.3532 298.678 94.0065 296.784 95.9799C294.918 97.9265 292.944 99.3265 290.864 100.18C288.811 101.007 286.531 101.42 284.024 101.42C280.078 101.42 276.598 100.607 273.584 98.9799C270.571 97.3532 268.224 94.9932 266.544 91.8999C264.891 88.8065 264.064 85.0865 264.064 80.7399C264.064 76.7399 264.864 73.0465 266.464 69.6599C268.064 66.2465 270.424 63.5132 273.544 61.4599C276.691 59.4065 280.558 58.3799 285.144 58.3799ZM321.096 97.8199L325.336 99.1399V100.38H302.896V99.1399L307.136 97.8199V51.5799C306.789 51.2865 306.309 50.8865 305.696 50.3799C305.082 49.8732 304.349 49.2732 303.496 48.5799C302.642 47.8865 301.696 47.1132 300.656 46.2599V45.1399L320.336 40.7799H321.096V48.8599V97.8199ZM344.086 97.8199L348.326 99.1399V100.38H325.886V99.1399L330.126 97.8199V51.5799C329.78 51.2865 329.3 50.8865 328.686 50.3799C328.073 49.8732 327.34 49.2732 326.486 48.5799C325.633 47.8865 324.686 47.1132 323.646 46.2599V45.1399L343.326 40.7799H344.086V48.8599V97.8199ZM371.197 98.7799C372.877 98.7799 374.224 98.1665 375.237 96.9399C376.277 95.7132 377.024 93.7932 377.477 91.1799C377.93 88.5399 378.157 85.1399 378.157 80.9799C378.157 76.5532 377.93 72.8732 377.477 69.9399C377.05 66.9799 376.317 64.7665 375.277 63.2999C374.264 61.8065 372.877 61.0599 371.117 61.0599C369.41 61.0599 368.05 61.6732 367.037 62.8999C366.024 64.1265 365.29 66.0465 364.837 68.6599C364.384 71.2732 364.157 74.6599 364.157 78.8199C364.157 83.2199 364.37 86.8999 364.797 89.8599C365.224 92.8199 365.944 95.0465 366.957 96.5399C367.997 98.0332 369.41 98.7799 371.197 98.7799ZM370.677 101.42C366.544 101.42 362.89 100.513 359.717 98.6999C356.544 96.8865 354.064 94.3799 352.277 91.1799C350.517 87.9532 349.637 84.2465 349.637 80.0599C349.637 75.7665 350.584 71.9932 352.477 68.7399C354.397 65.4865 357.01 62.9532 360.317 61.1399C363.65 59.2999 367.41 58.3799 371.597 58.3799C375.837 58.3799 379.53 59.2865 382.677 61.0999C385.824 62.8865 388.277 65.3932 390.037 68.6199C391.797 71.8199 392.677 75.5265 392.677 79.7399C392.677 84.0332 391.704 87.8199 389.757 91.0999C387.81 94.3532 385.184 96.8865 381.877 98.6999C378.57 100.513 374.837 101.42 370.677 101.42ZM426.657 58.5799C428.177 58.5799 429.364 59.0465 430.217 59.9799C431.097 60.8865 431.537 62.0999 431.537 63.6199C431.537 65.5399 430.91 67.1799 429.657 68.5399C428.404 69.8732 426.87 70.5399 425.057 70.5399C423.91 70.5399 422.924 70.4465 422.097 70.2599C421.297 70.0465 420.497 69.8465 419.697 69.6599C418.924 69.4465 418.017 69.3399 416.977 69.3399C416.204 69.3399 415.497 69.4332 414.857 69.6199C414.217 69.8065 413.617 70.0865 413.057 70.4599C412.524 70.8065 411.964 71.2865 411.377 71.8999L411.337 70.0199C413.604 67.4599 415.497 65.4199 417.017 63.8999C418.564 62.3799 419.884 61.2465 420.977 60.4999C422.097 59.7265 423.097 59.2199 423.977 58.9799C424.857 58.7132 425.75 58.5799 426.657 58.5799ZM412.737 66.5799V97.8199L417.817 99.1399V100.38H394.577V99.1399L398.817 97.8199V69.1799C398.47 68.8332 398.11 68.4732 397.737 68.0999C397.364 67.7265 396.87 67.2465 396.257 66.6599C395.67 66.0465 394.884 65.2199 393.897 64.1799V63.0599L412.017 58.2199H412.737V66.5799Z" fill="white"/>
</g>
<g filter="url(#filter1_ddi_506_9351)">
<path d="M171.272 31.2857L176.548 30.5441L179.236 49.6682L181.724 50.2395L181.815 50.8892L171.801 52.2965L171.71 51.6469L173.96 50.4097L171.272 31.2857ZM182.565 30.5872L165.199 33.0278L167.136 32.2063L164.882 38.1295L163.984 38.0619L163.656 30.2071L164.163 30.1359L167.251 31.3014L165.312 31.1861L181.933 28.8503L180.544 29.4332L183.176 27.4638L183.683 27.3925L185.548 35.0312L184.688 35.3461L180.905 30.2712L182.565 30.5872ZM197.508 48.0697L199.078 47.1704L197.947 39.1215C197.875 38.6145 197.733 38.2144 197.519 37.9213C197.306 37.6282 197.014 37.4322 196.645 37.3333C196.285 37.2223 195.841 37.204 195.312 37.2782C194.7 37.3643 194.147 37.5335 193.655 37.7858C193.161 38.0276 192.749 38.317 192.42 38.6542L191.848 38.1528C192.448 37.2823 192.989 36.5707 193.471 36.0182C193.963 35.4536 194.428 35.0112 194.868 34.6909C195.308 34.3706 195.753 34.1302 196.205 33.9698C196.656 33.8094 197.146 33.6921 197.674 33.6179C199.079 33.4205 200.184 33.696 200.989 34.4446C201.804 35.181 202.332 36.4102 202.574 38.1319L203.741 46.4343L205.747 46.9118L205.831 47.5139L197.592 48.6718L197.508 48.0697ZM196.246 48.8611L187.848 50.0412L187.763 49.4392L189.528 48.4317L187.106 31.1931C186.921 31.0253 186.704 30.8619 186.455 30.7029C186.207 30.5439 185.909 30.3811 185.562 30.2144C185.226 30.0462 184.836 29.8748 184.392 29.7003L184.305 29.0824L190.927 26.3098L191.387 26.2452L191.742 30.2669L194.203 47.7748L196.161 48.259L196.246 48.8611ZM211.543 31.6365C212.789 31.4613 213.887 31.5709 214.837 31.9653C215.786 32.3596 216.577 33.0078 217.21 33.9098C217.842 34.8013 218.306 35.9209 218.603 37.2686L208.415 38.7005L208.246 37.3832L216.233 35.9215L214.148 37.0707C213.968 36.0943 213.744 35.3071 213.477 34.7092C213.219 34.0991 212.91 33.6632 212.55 33.4014C212.201 33.1382 211.794 33.0392 211.329 33.1045C210.822 33.1758 210.4 33.3913 210.063 33.751C209.724 34.1002 209.494 34.6496 209.373 35.399C209.263 36.147 209.296 37.1495 209.473 38.4064C209.648 39.6529 209.99 40.6711 210.5 41.4612C211.019 42.2393 211.677 42.7876 212.476 43.1062C213.275 43.4248 214.181 43.5128 215.195 43.3703C215.671 43.3035 216.108 43.1936 216.506 43.0407C216.915 42.8862 217.307 42.6805 217.68 42.4234C218.062 42.1542 218.435 41.8217 218.8 41.4258L219.398 42.0041C218.894 42.9367 218.35 43.7456 217.768 44.4306C217.186 45.1157 216.541 45.664 215.834 46.0758C215.136 46.4754 214.349 46.7369 213.472 46.8601C212.036 47.062 210.735 46.927 209.57 46.4553C208.415 45.982 207.46 45.2384 206.704 44.2245C205.956 43.1985 205.482 41.9672 205.28 40.5307C205.081 39.1153 205.177 37.7714 205.569 36.4991C205.972 35.2254 206.672 34.1521 207.67 33.2795C208.667 32.4068 209.958 31.8592 211.543 31.6365Z" fill="white"/>
</g>
<g filter="url(#filter2_ddi_506_9351)">
<path fill-rule="evenodd" clip-rule="evenodd" d="M226.097 55.3314C225.22 55.225 224.591 54.4266 224.736 53.5547C227.27 38.2426 239.018 27.5376 249.929 23.8642C250.766 23.5822 251.648 24.0846 251.885 24.936V24.936C252.122 25.7874 251.624 26.6651 250.788 26.9518C240.929 30.3339 230.271 40.0925 227.917 53.9395C227.768 54.8108 226.975 55.4377 226.097 55.3314V55.3314Z" fill="white"/>
<path fill-rule="evenodd" clip-rule="evenodd" d="M227.97 43.5397C240.74 22.8737 256.196 20.4471 263.358 22.9172C261.461 24.3576 260.25 26.5862 259.288 29.1357C253.705 30.8182 246.482 34.2347 242.685 40.1149C244.827 37.8564 251.823 34.8888 257.593 34.4469C254.678 44.2771 251.303 54.2776 227.97 43.5397Z" fill="white"/>
</g>
</g>
<defs>
<filter id="filter0_ddi_506_9351" x="14.2444" y="30.3398" width="452.293" height="111.08" filterUnits="userSpaceOnUse" color-interpolation-filters="sRGB">
<feFlood flood-opacity="0" result="BackgroundImageFix"/>
<feColorMatrix in="SourceAlpha" type="matrix" values="0 0 0 0 0 0 0 0 0 0 0 0 0 0 0 0 0 0 127 0" result="hardAlpha"/>
<feOffset dx="10" dy="15"/>
<feGaussianBlur stdDeviation="12.5"/>
<feComposite in2="hardAlpha" operator="out"/>
<feColorMatrix type="matrix" values="0 0 0 0 0 0 0 0 0 0 0 0 0 0 0 0 0 0 0.25 0"/>
<feBlend mode="normal" in2="BackgroundImageFix" result="effect1_dropShadow_506_9351"/>
<feColorMatrix in="SourceAlpha" type="matrix" values="0 0 0 0 0 0 0 0 0 0 0 0 0 0 0 0 0 0 127 0" result="hardAlpha"/>
<feOffset dx="-2" dy="-2"/>
<feGaussianBlur stdDeviation="2.5"/>
<feComposite in2="hardAlpha" operator="out"/>
<feColorMatrix type="matrix" values="0 0 0 0 1 0 0 0 0 0.807843 0 0 0 0 0 0 0 0 0.4 0"/>
<feBlend mode="normal" in2="effect1_dropShadow_506_9351" result="effect2_dropShadow_506_9351"/>
<feBlend mode="normal" in="SourceGraphic" in2="effect2_dropShadow_506_9351" result="shape"/>
<feColorMatrix in="SourceAlpha" type="matrix" values="0 0 0 0 0 0 0 0 0 0 0 0 0 0 0 0 0 0 127 0" result="hardAlpha"/>
<feOffset dy="-4"/>
<feGaussianBlur stdDeviation="2"/>
<feComposite in2="hardAlpha" operator="arithmetic" k2="-1" k3="1"/>
<feColorMatrix type="matrix" values="0 0 0 0 0 0 0 0 0 0 0 0 0 0 0 0 0 0 0.15 0"/>
<feBlend mode="normal" in2="shape" result="effect3_innerShadow_506_9351"/>
</filter>
<filter id="filter1_ddi_506_9351" x="157.886" y="17.6895" width="72.0662" height="45.8203" filterUnits="userSpaceOnUse" color-interpolation-filters="sRGB">
<feFlood flood-opacity="0" result="BackgroundImageFix"/>
<feColorMatrix in="SourceAlpha" type="matrix" values="0 0 0 0 0 0 0 0 0 0 0 0 0 0 0 0 0 0 127 0" result="hardAlpha"/>
<feOffset dx="4" dy="4"/>
<feGaussianBlur stdDeviation="3"/>
<feComposite in2="hardAlpha" operator="out"/>
<feColorMatrix type="matrix" values="0 0 0 0 0 0 0 0 0 0 0 0 0 0 0 0 0 0 0.3 0"/>
<feBlend mode="normal" in2="BackgroundImageFix" result="effect1_dropShadow_506_9351"/>
<feColorMatrix in="SourceAlpha" type="matrix" values="0 0 0 0 0 0 0 0 0 0 0 0 0 0 0 0 0 0 127 0" result="hardAlpha"/>
<feOffset dx="-2" dy="-2"/>
<feGaussianBlur stdDeviation="1.5"/>
<feComposite in2="hardAlpha" operator="out"/>
<feColorMatrix type="matrix" values="0 0 0 0 1 0 0 0 0 0.807843 0 0 0 0 0 0 0 0 0.3 0"/>
<feBlend mode="normal" in2="effect1_dropShadow_506_9351" result="effect2_dropShadow_506_9351"/>
<feBlend mode="normal" in="SourceGraphic" in2="effect2_dropShadow_506_9351" result="shape"/>
<feColorMatrix in="SourceAlpha" type="matrix" values="0 0 0 0 0 0 0 0 0 0 0 0 0 0 0 0 0 0 127 0" result="hardAlpha"/>
<feOffset dy="-2"/>
<feGaussianBlur stdDeviation="1"/>
<feComposite in2="hardAlpha" operator="arithmetic" k2="-1" k3="1"/>
<feColorMatrix type="matrix" values="0 0 0 0 0 0 0 0 0 0 0 0 0 0 0 0 0 0 0.15 0"/>
<feBlend mode="normal" in2="shape" result="effect3_innerShadow_506_9351"/>
</filter>
<filter id="filter2_ddi_506_9351" x="204.715" y="12.1299" width="78.6428" height="73.2129" filterUnits="userSpaceOnUse" color-interpolation-filters="sRGB">
<feFlood flood-opacity="0" result="BackgroundImageFix"/>
<feColorMatrix in="SourceAlpha" type="matrix" values="0 0 0 0 0 0 0 0 0 0 0 0 0 0 0 0 0 0 127 0" result="hardAlpha"/>
<feOffset dy="10"/>
<feGaussianBlur stdDeviation="10"/>
<feComposite in2="hardAlpha" operator="out"/>
<feColorMatrix type="matrix" values="0 0 0 0 0 0 0 0 0 0 0 0 0 0 0 0 0 0 0.3 0"/>
<feBlend mode="normal" in2="BackgroundImageFix" result="effect1_dropShadow_506_9351"/>
<feColorMatrix in="SourceAlpha" type="matrix" values="0 0 0 0 0 0 0 0 0 0 0 0 0 0 0 0 0 0 127 0" result="hardAlpha"/>
<feOffset dx="-2" dy="-2"/>
<feGaussianBlur stdDeviation="2.5"/>
<feComposite in2="hardAlpha" operator="out"/>
<feColorMatrix type="matrix" values="0 0 0 0 1 0 0 0 0 0.807843 0 0 0 0 0 0 0 0 0.25 0"/>
<feBlend mode="normal" in2="effect1_dropShadow_506_9351" result="effect2_dropShadow_506_9351"/>
<feBlend mode="normal" in="SourceGraphic" in2="effect2_dropShadow_506_9351" result="shape"/>
<feColorMatrix in="SourceAlpha" type="matrix" values="0 0 0 0 0 0 0 0 0 0 0 0 0 0 0 0 0 0 127 0" result="hardAlpha"/>
<feOffset dy="-2"/>
<feGaussianBlur stdDeviation="2"/>
<feComposite in2="hardAlpha" operator="arithmetic" k2="-1" k3="1"/>
<feColorMatrix type="matrix" values="0 0 0 0 0 0 0 0 0 0 0 0 0 0 0 0 0 0 0.2 0"/>
<feBlend mode="normal" in2="shape" result="effect3_innerShadow_506_9351"/>
</filter>
<clipPath id="clip0_506_9351">
<rect width="460" height="140" fill="white"/>
</clipPath>
</defs>
</svg>
