<svg width="460" height="140" viewBox="0 0 460 140" fill="none" xmlns="http://www.w3.org/2000/svg">
<g clip-path="url(#clip0_475_7997)">
<g filter="url(#filter0_ddi_475_7997)">
<path d="M64.7644 98.7795C66.4177 98.7795 68.0044 98.5261 69.5244 98.0195C71.0444 97.5128 72.4977 96.7261 73.8844 95.6595L71.8044 97.4195L81.0044 83.5395H82.3644L78.9644 99.3795C76.0844 100.126 73.3377 100.646 70.7244 100.939C68.111 101.259 65.2177 101.419 62.0444 101.419C57.111 101.419 52.631 100.793 48.6044 99.5395C44.5777 98.2595 41.111 96.3528 38.2044 93.8195C35.3244 91.2595 33.111 88.0995 31.5644 84.3395C30.0177 80.5795 29.2444 76.2195 29.2444 71.2595C29.2444 65.4728 30.6044 60.3928 33.3244 56.0195C36.071 51.6461 39.8844 48.2461 44.7644 45.8195C49.6444 43.3661 55.3244 42.1395 61.8044 42.1395C64.151 42.1395 66.271 42.2595 68.1644 42.4995C70.0577 42.7128 72.191 43.0861 74.5644 43.6195L71.0444 44.6195L76.8444 40.3395H77.4844L81.7244 62.0995L80.4044 62.4995L70.5244 47.0995L73.6444 50.8595C71.2977 48.5661 69.1377 47.0195 67.1644 46.2195C65.191 45.4195 63.151 45.0195 61.0444 45.0195C58.8577 45.0195 56.831 45.4328 54.9644 46.2595C53.1244 47.0861 51.511 48.4328 50.1244 50.2995C48.7377 52.1395 47.6577 54.5928 46.8844 57.6595C46.111 60.6995 45.7244 64.4595 45.7244 68.9395C45.7244 73.4195 46.2177 77.4995 47.2044 81.1795C48.2177 84.8328 49.591 87.9795 51.3244 90.6195C53.0844 93.2328 55.111 95.2461 57.4044 96.6595C59.6977 98.0728 62.151 98.7795 64.7644 98.7795ZM110.166 99.1395L114.166 97.8995V73.4595C114.166 72.0195 113.939 70.8595 113.486 69.9795C113.059 69.0995 112.406 68.4595 111.526 68.0595C110.646 67.6328 109.512 67.4195 108.126 67.4195C106.819 67.4195 105.512 67.6061 104.206 67.9795C102.926 68.3261 101.632 68.8195 100.326 69.4595L100.126 68.6995C102.179 66.4861 103.939 64.7128 105.406 63.3795C106.899 62.0195 108.232 61.0061 109.406 60.3395C110.606 59.6461 111.779 59.1928 112.926 58.9795C114.099 58.7395 115.419 58.6195 116.886 58.6195C120.592 58.6195 123.379 59.6461 125.246 61.6995C127.139 63.7528 128.086 66.7395 128.086 70.6595V97.8195L132.326 99.1395V100.379H110.166V99.1395ZM105.726 100.379H83.6056V99.1395L87.8456 97.8195V52.3795C87.499 52.0595 87.019 51.6195 86.4056 51.0595C85.7923 50.4995 85.059 49.8461 84.2056 49.0995C83.3523 48.3261 82.4056 47.4728 81.3656 46.5395V45.4195L101.046 40.7795H101.806V55.1795V97.8995L105.726 99.1395V100.379ZM157.814 74.4195L157.734 76.4995C155.414 77.3261 153.534 78.1261 152.094 78.8995C150.654 79.6728 149.547 80.4861 148.774 81.3395C148.027 82.1661 147.507 83.0728 147.214 84.0595C146.947 85.0461 146.814 86.1661 146.814 87.4195C146.814 89.5795 147.24 91.1528 148.094 92.1395C148.974 93.0995 150.107 93.5795 151.494 93.5795C152.4 93.5795 153.187 93.3928 153.854 93.0195C154.52 92.6461 155.04 92.0595 155.414 91.2595C155.787 90.4595 155.974 89.4195 155.974 88.1395V69.1395C155.974 67.0061 155.387 65.3395 154.214 64.1395C153.067 62.9128 151.32 62.2995 148.974 62.2995C147.774 62.2995 146.667 62.3528 145.654 62.4595C144.667 62.5661 143.827 62.7261 143.134 62.9395L144.814 60.5395C144.627 62.3795 144.427 63.9128 144.214 65.1395C144 66.3395 143.774 67.3128 143.534 68.0595C143.294 68.7795 143 69.3661 142.654 69.8195C142.227 70.4061 141.574 70.8861 140.694 71.2595C139.84 71.6328 138.894 71.8195 137.854 71.8195C136.467 71.8195 135.44 71.5928 134.774 71.1395C134.107 70.6595 133.774 70.0195 133.774 69.2195C133.774 68.0195 134.387 66.7928 135.614 65.5395C136.84 64.2595 138.467 63.0861 140.494 62.0195C142.547 60.9261 144.84 60.0461 147.374 59.3795C149.907 58.7128 152.48 58.3795 155.094 58.3795C158.694 58.3795 161.574 58.8995 163.734 59.9395C165.92 60.9528 167.494 62.4195 168.454 64.3395C169.414 66.2328 169.894 68.4728 169.894 71.0595V92.5795C169.894 93.2461 170 93.7928 170.214 94.2195C170.427 94.6461 170.734 94.9661 171.134 95.1795C171.56 95.3661 172.054 95.4595 172.614 95.4595C173.254 95.4595 173.894 95.3795 174.534 95.2195C175.2 95.0328 175.88 94.7661 176.574 94.4195V96.4195C174.52 98.3395 172.587 99.6595 170.774 100.379C168.96 101.073 166.907 101.419 164.614 101.419C162.56 101.419 160.907 101.046 159.654 100.299C158.427 99.5261 157.52 98.3395 156.934 96.7395C156.374 95.1128 156.054 93.0461 155.974 90.5395L156.534 90.8995C156 93.2461 155.2 95.1928 154.134 96.7395C153.094 98.2861 151.827 99.4461 150.334 100.219C148.867 100.993 147.214 101.379 145.374 101.379C141.507 101.379 138.534 100.433 136.454 98.5395C134.4 96.6195 133.374 94.0195 133.374 90.7395C133.374 89.0861 133.654 87.6061 134.214 86.2995C134.8 84.9661 135.92 83.7128 137.574 82.5395C139.254 81.3395 141.707 80.0995 144.934 78.8195C148.187 77.5128 152.48 76.0461 157.814 74.4195ZM194.012 67.8595V97.8995L197.972 99.1395V100.379H175.852V99.1395L180.092 97.8195V69.1795C179.639 68.6995 178.999 68.0195 178.172 67.1395C177.372 66.2595 176.372 65.2728 175.172 64.1795V63.0595L193.292 58.2195H194.012V67.8595ZM202.412 99.1395L206.412 97.8995V73.4595C206.412 72.0195 206.185 70.8595 205.732 69.9795C205.305 69.0995 204.652 68.4595 203.772 68.0595C202.892 67.6328 201.759 67.4195 200.372 67.4195C199.039 67.4195 197.732 67.6061 196.452 67.9795C195.172 68.3261 193.879 68.8195 192.572 69.4595L192.372 68.6995C194.425 66.4861 196.185 64.7128 197.652 63.3795C199.145 62.0195 200.479 61.0061 201.652 60.3395C202.825 59.6461 203.999 59.1928 205.172 58.9795C206.345 58.7395 207.665 58.6195 209.132 58.6195C212.839 58.6195 215.625 59.6461 217.492 61.6995C219.385 63.7528 220.332 66.7395 220.332 70.6595V97.8195L224.572 99.1395V100.379H202.412V99.1395ZM248.565 58.3795C252.005 58.3795 254.738 58.7395 256.765 59.4595C258.818 60.1795 260.285 61.0995 261.165 62.2195C262.072 63.3128 262.525 64.4461 262.525 65.6195C262.525 66.6061 262.272 67.4861 261.765 68.2595C261.285 69.0061 260.658 69.5928 259.885 70.0195C259.112 70.4195 258.285 70.6195 257.405 70.6195C257.112 70.6195 256.672 70.2995 256.085 69.6595C255.498 68.9928 254.792 68.1928 253.965 67.2595C253.165 66.2995 252.285 65.3528 251.325 64.4195C250.365 63.4595 249.365 62.6595 248.325 62.0195C247.312 61.3528 246.312 61.0195 245.325 61.0195C244.018 61.0195 242.858 61.4328 241.845 62.2595C240.858 63.0595 240.085 64.4061 239.525 66.2995C238.965 68.1661 238.685 70.7261 238.685 73.9795C238.685 78.4328 239.165 82.0061 240.125 84.6995C241.085 87.3661 242.485 89.2995 244.325 90.4995C246.165 91.6995 248.418 92.2995 251.085 92.2995C253.325 92.2995 255.298 91.9528 257.005 91.2595C258.738 90.5395 260.485 89.2728 262.245 87.4595L263.205 88.2595C261.392 91.5661 259.565 94.1795 257.725 96.0995C255.912 98.0195 253.992 99.3928 251.965 100.219C249.965 101.019 247.738 101.419 245.285 101.419C241.365 101.419 237.925 100.606 234.965 98.9795C232.005 97.3528 229.698 94.9928 228.045 91.8995C226.392 88.7795 225.565 85.0328 225.565 80.6595C225.565 77.4595 226.152 74.5128 227.325 71.8195C228.498 69.0995 230.138 66.7395 232.245 64.7395C234.352 62.7128 236.792 61.1528 239.565 60.0595C242.365 58.9395 245.365 58.3795 248.565 58.3795ZM285.144 58.3795C288.531 58.3795 291.411 59.0461 293.784 60.3795C296.158 61.6861 298.011 63.5928 299.344 66.0995C300.678 68.6061 301.478 71.6195 301.744 75.1395H274.624V71.9795H295.664L289.344 73.9395C289.184 70.6595 288.878 68.0995 288.424 66.2595C287.998 64.3928 287.398 63.0728 286.624 62.2995C285.878 61.5261 284.931 61.1395 283.784 61.1395C282.371 61.1395 281.171 61.5661 280.184 62.4195C279.224 63.2728 278.491 64.7128 277.984 66.7395C277.478 68.7661 277.224 71.5528 277.224 75.0995C277.224 79.2328 277.704 82.5661 278.664 85.0995C279.651 87.6061 281.104 89.4328 283.024 90.5795C284.944 91.7261 287.318 92.2995 290.144 92.2995C291.584 92.2995 292.931 92.1395 294.184 91.8195C295.464 91.4728 296.691 90.9261 297.864 90.1795C299.064 89.4328 300.264 88.4328 301.464 87.1795L302.424 88.0195C300.558 91.3528 298.678 94.0061 296.784 95.9795C294.918 97.9261 292.944 99.3261 290.864 100.179C288.811 101.006 286.531 101.419 284.024 101.419C280.078 101.419 276.598 100.606 273.584 98.9795C270.571 97.3528 268.224 94.9928 266.544 91.8995C264.891 88.8061 264.064 85.0861 264.064 80.7395C264.064 76.7395 264.864 73.0461 266.464 69.6595C268.064 66.2461 270.424 63.5128 273.544 61.4595C276.691 59.4061 280.558 58.3795 285.144 58.3795ZM321.096 97.8195L325.336 99.1395V100.379H302.896V99.1395L307.136 97.8195V51.5795C306.789 51.2861 306.309 50.8861 305.696 50.3795C305.082 49.8728 304.349 49.2728 303.496 48.5795C302.642 47.8861 301.696 47.1128 300.656 46.2595V45.1395L320.336 40.7795H321.096V48.8595V97.8195ZM344.086 97.8195L348.326 99.1395V100.379H325.886V99.1395L330.126 97.8195V51.5795C329.78 51.2861 329.3 50.8861 328.686 50.3795C328.073 49.8728 327.34 49.2728 326.486 48.5795C325.633 47.8861 324.686 47.1128 323.646 46.2595V45.1395L343.326 40.7795H344.086V48.8595V97.8195ZM371.197 98.7795C372.877 98.7795 374.224 98.1661 375.237 96.9395C376.277 95.7128 377.024 93.7928 377.477 91.1795C377.93 88.5395 378.157 85.1395 378.157 80.9795C378.157 76.5528 377.93 72.8728 377.477 69.9395C377.05 66.9795 376.317 64.7661 375.277 63.2995C374.264 61.8061 372.877 61.0595 371.117 61.0595C369.41 61.0595 368.05 61.6728 367.037 62.8995C366.024 64.1261 365.29 66.0461 364.837 68.6595C364.384 71.2728 364.157 74.6595 364.157 78.8195C364.157 83.2195 364.37 86.8995 364.797 89.8595C365.224 92.8195 365.944 95.0461 366.957 96.5395C367.997 98.0328 369.41 98.7795 371.197 98.7795ZM370.677 101.419C366.544 101.419 362.89 100.513 359.717 98.6995C356.544 96.8861 354.064 94.3795 352.277 91.1795C350.517 87.9528 349.637 84.2461 349.637 80.0595C349.637 75.7661 350.584 71.9928 352.477 68.7395C354.397 65.4861 357.01 62.9528 360.317 61.1395C363.65 59.2995 367.41 58.3795 371.597 58.3795C375.837 58.3795 379.53 59.2861 382.677 61.0995C385.824 62.8861 388.277 65.3928 390.037 68.6195C391.797 71.8195 392.677 75.5261 392.677 79.7395C392.677 84.0328 391.704 87.8195 389.757 91.0995C387.81 94.3528 385.184 96.8861 381.877 98.6995C378.57 100.513 374.837 101.419 370.677 101.419ZM426.657 58.5795C428.177 58.5795 429.364 59.0461 430.217 59.9795C431.097 60.8861 431.537 62.0995 431.537 63.6195C431.537 65.5395 430.91 67.1795 429.657 68.5395C428.404 69.8728 426.87 70.5395 425.057 70.5395C423.91 70.5395 422.924 70.4461 422.097 70.2595C421.297 70.0461 420.497 69.8461 419.697 69.6595C418.924 69.4461 418.017 69.3395 416.977 69.3395C416.204 69.3395 415.497 69.4328 414.857 69.6195C414.217 69.8061 413.617 70.0861 413.057 70.4595C412.524 70.8061 411.964 71.2861 411.377 71.8995L411.337 70.0195C413.604 67.4595 415.497 65.4195 417.017 63.8995C418.564 62.3795 419.884 61.2461 420.977 60.4995C422.097 59.7261 423.097 59.2195 423.977 58.9795C424.857 58.7128 425.75 58.5795 426.657 58.5795ZM412.737 66.5795V97.8195L417.817 99.1395V100.379H394.577V99.1395L398.817 97.8195V69.1795C398.47 68.8328 398.11 68.4728 397.737 68.0995C397.364 67.7261 396.87 67.2461 396.257 66.6595C395.67 66.0461 394.884 65.2195 393.897 64.1795V63.0595L412.017 58.2195H412.737V66.5795Z" fill="white"/>
</g>
<g filter="url(#filter1_dd_475_7997)">
<path d="M174.079 28.1288L177.618 27.8193L179.318 47.2491L181.925 47.8562L181.978 48.4618L173.37 49.2149L173.317 48.6092L175.779 47.5586L174.079 28.1288ZM184.383 27.8538L167.328 29.3459L169.001 28.8301L166.84 34.239L166.095 34.1597L166.206 26.81L166.557 26.7793L169.152 27.9818L167.565 27.8315L183.886 26.4036L182.493 26.8146L184.823 25.1812L185.19 25.1492L186.576 32.3678L185.856 32.5754L182.789 27.6239L184.383 27.8538ZM199.179 46.3947L201.303 45.5183L200.585 37.3097C200.535 36.7359 200.381 36.2621 200.123 35.8885C199.865 35.5042 199.504 35.2307 199.04 35.0678C198.585 34.8934 198.029 34.835 197.37 34.8927C196.594 34.9605 195.883 35.1513 195.236 35.4649C194.599 35.7775 194.126 36.1241 193.817 36.5045L193.264 36.055C193.865 35.3385 194.412 34.7392 194.905 34.2571C195.409 33.774 195.889 33.3893 196.346 33.1031C196.813 32.8053 197.281 32.5877 197.751 32.4502C198.219 32.3021 198.725 32.2044 199.267 32.1569C200.648 32.0361 201.7 32.367 202.421 33.1498C203.153 33.921 203.595 35.1885 203.75 36.9525L204.472 45.2089L206.798 45.7282L206.847 46.2861L199.228 46.9526L199.179 46.3947ZM197.315 47.12L189.665 47.7893L189.616 47.2314L191.785 46.319L190.194 28.1324C190.031 27.986 189.825 27.8381 189.576 27.6885C189.338 27.538 189.052 27.3864 188.718 27.2336C188.383 27.0809 188 26.927 187.569 26.772L187.533 26.3576L192.887 24.4115L193.206 24.3836L193.442 28.7316L194.957 46.0415L197.267 46.5621L197.315 47.12ZM214.534 30.8052C215.65 30.7075 216.633 30.8625 217.482 31.27C218.331 31.6775 219.03 32.3178 219.577 33.1907C220.136 34.0627 220.524 35.1422 220.744 36.4293L210.687 37.3093L210.621 36.1907L218.851 35.1655L217.464 36.0256C217.31 35.1183 217.094 34.3662 216.817 33.7695C216.55 33.1611 216.211 32.7143 215.801 32.429C215.389 32.133 214.891 32.0106 214.307 32.0617C213.616 32.1222 213.028 32.3717 212.542 32.8105C212.055 33.2492 211.704 33.8796 211.486 34.7016C211.269 35.5237 211.214 36.5404 211.32 37.7518C211.434 39.0588 211.754 40.1444 212.279 41.0085C212.804 41.8727 213.491 42.5032 214.34 42.9001C215.198 43.2855 216.18 43.4298 217.285 43.3331C217.742 43.2931 218.178 43.2014 218.594 43.058C219.019 42.903 219.424 42.6909 219.807 42.4218C220.201 42.1518 220.574 41.8247 220.926 41.4406L221.364 41.868C220.849 42.7054 220.311 43.411 219.751 43.9847C219.19 44.5477 218.58 44.9865 217.923 45.301C217.264 45.6049 216.541 45.7912 215.755 45.86C214.427 45.9763 213.221 45.7766 212.137 45.2611C211.063 44.734 210.186 43.9488 209.506 42.9055C208.836 41.8612 208.438 40.6111 208.31 39.1554C208.188 37.7527 208.346 36.4433 208.786 35.227C209.225 34.0001 209.929 32.9909 210.898 32.1994C211.866 31.3973 213.079 30.9325 214.534 30.8052Z" fill="white"/>
</g>
</g>
<defs>
<filter id="filter0_ddi_475_7997" x="14.2441" y="30.3395" width="452.293" height="111.08" filterUnits="userSpaceOnUse" color-interpolation-filters="sRGB">
<feFlood flood-opacity="0" result="BackgroundImageFix"/>
<feColorMatrix in="SourceAlpha" type="matrix" values="0 0 0 0 0 0 0 0 0 0 0 0 0 0 0 0 0 0 127 0" result="hardAlpha"/>
<feOffset dx="10" dy="15"/>
<feGaussianBlur stdDeviation="12.5"/>
<feComposite in2="hardAlpha" operator="out"/>
<feColorMatrix type="matrix" values="0 0 0 0 0 0 0 0 0 0 0 0 0 0 0 0 0 0 0.25 0"/>
<feBlend mode="normal" in2="BackgroundImageFix" result="effect1_dropShadow_475_7997"/>
<feColorMatrix in="SourceAlpha" type="matrix" values="0 0 0 0 0 0 0 0 0 0 0 0 0 0 0 0 0 0 127 0" result="hardAlpha"/>
<feOffset dx="-2" dy="-2"/>
<feGaussianBlur stdDeviation="4"/>
<feComposite in2="hardAlpha" operator="out"/>
<feColorMatrix type="matrix" values="0 0 0 0 1 0 0 0 0 0.807843 0 0 0 0 0 0 0 0 0.2 0"/>
<feBlend mode="normal" in2="effect1_dropShadow_475_7997" result="effect2_dropShadow_475_7997"/>
<feBlend mode="normal" in="SourceGraphic" in2="effect2_dropShadow_475_7997" result="shape"/>
<feColorMatrix in="SourceAlpha" type="matrix" values="0 0 0 0 0 0 0 0 0 0 0 0 0 0 0 0 0 0 127 0" result="hardAlpha"/>
<feOffset dy="-4"/>
<feGaussianBlur stdDeviation="2"/>
<feComposite in2="hardAlpha" operator="arithmetic" k2="-1" k3="1"/>
<feColorMatrix type="matrix" values="0 0 0 0 0 0 0 0 0 0 0 0 0 0 0 0 0 0 0.1 0"/>
<feBlend mode="normal" in2="shape" result="effect3_innerShadow_475_7997"/>
</filter>
<filter id="filter1_dd_475_7997" x="157.452" y="14.0716" width="76.2168" height="48.0113" filterUnits="userSpaceOnUse" color-interpolation-filters="sRGB">
<feFlood flood-opacity="0" result="BackgroundImageFix"/>
<feColorMatrix in="SourceAlpha" type="matrix" values="0 0 0 0 0 0 0 0 0 0 0 0 0 0 0 0 0 0 127 0" result="hardAlpha"/>
<feOffset dx="4" dy="4"/>
<feGaussianBlur stdDeviation="4"/>
<feComposite in2="hardAlpha" operator="out"/>
<feColorMatrix type="matrix" values="0 0 0 0 0 0 0 0 0 0 0 0 0 0 0 0 0 0 0.3 0"/>
<feBlend mode="normal" in2="BackgroundImageFix" result="effect1_dropShadow_475_7997"/>
<feColorMatrix in="SourceAlpha" type="matrix" values="0 0 0 0 0 0 0 0 0 0 0 0 0 0 0 0 0 0 127 0" result="hardAlpha"/>
<feOffset dx="-2" dy="-2"/>
<feGaussianBlur stdDeviation="3"/>
<feComposite in2="hardAlpha" operator="out"/>
<feColorMatrix type="matrix" values="0 0 0 0 1 0 0 0 0 0.807843 0 0 0 0 0 0 0 0 0.4 0"/>
<feBlend mode="normal" in2="effect1_dropShadow_475_7997" result="effect2_dropShadow_475_7997"/>
<feBlend mode="normal" in="SourceGraphic" in2="effect2_dropShadow_475_7997" result="shape"/>
</filter>
<clipPath id="clip0_475_7997">
<rect width="460" height="140" fill="white"/>
</clipPath>
</defs>
</svg>
