<svg width="150" height="100" viewBox="0 0 150 100" fill="none" xmlns="http://www.w3.org/2000/svg">
<rect width="150" height="100" fill="#0552C6"/>
<path d="M73.5574 15.022L72.0525 19.6536L74.3683 20.4061L73.5574 15.022Z" fill="#FFDA46"/>
<path d="M73.5574 15.022L75.0623 19.6536L72.7465 20.4061L73.5574 15.022Z" fill="#FFDA46"/>
<path d="M78.1997 18.3877H73.3297V20.8227L78.1997 18.3877Z" fill="#FFDA46"/>
<path d="M78.1997 18.3877L74.2598 21.2502L72.8285 19.2803L78.1997 18.3877Z" fill="#FFDA46"/>
<path d="M76.4333 23.8333L74.9284 19.2016L72.6126 19.9541L76.4333 23.8333Z" fill="#FFDA46"/>
<path d="M76.4333 23.8333L72.4934 20.9707L73.9247 19.0008L76.4333 23.8333Z" fill="#FFDA46"/>
<path d="M68.923 18.3867H73.793V20.8217L68.923 18.3867Z" fill="#FFDA46"/>
<path d="M68.923 18.3867L72.8629 21.2492L74.2942 19.2792L68.923 18.3867Z" fill="#FFDA46"/>
<path d="M70.6892 23.8333L72.1941 19.2016L74.5099 19.9541L70.6892 23.8333Z" fill="#FFDA46"/>
<path d="M70.6892 23.8333L74.6291 20.9707L73.1979 19.0008L70.6892 23.8333Z" fill="#FFDA46"/>
<path d="M73.5574 73.4587L72.0525 78.0904L74.3683 78.8428L73.5574 73.4587Z" fill="#FFDA46"/>
<path d="M73.5574 73.4587L75.0623 78.0904L72.7465 78.8428L73.5574 73.4587Z" fill="#FFDA46"/>
<path d="M78.1997 76.8222H73.3297V79.2572L78.1997 76.8222Z" fill="#FFDA46"/>
<path d="M78.1997 76.8222L74.2598 79.6847L72.8285 77.7148L78.1997 76.8222Z" fill="#FFDA46"/>
<path d="M76.4333 82.2667L74.9284 77.6351L72.6126 78.3875L76.4333 82.2667Z" fill="#FFDA46"/>
<path d="M76.4333 82.2667L72.4934 79.4042L73.9247 77.4342L76.4333 82.2667Z" fill="#FFDA46"/>
<path d="M68.923 76.8222H73.793V79.2572L68.923 76.8222Z" fill="#FFDA46"/>
<path d="M68.923 76.8222L72.8629 79.6847L74.2942 77.7148L68.923 76.8222Z" fill="#FFDA46"/>
<path d="M70.6892 82.2667L72.1941 77.6351L74.5099 78.3875L70.6892 82.2667Z" fill="#FFDA46"/>
<path d="M70.6892 82.2667L74.6291 79.4042L73.1979 77.4342L70.6892 82.2667Z" fill="#FFDA46"/>
<path d="M44.3348 44.2419L42.8299 48.8735L45.1457 49.626L44.3348 44.2419Z" fill="#FFDA46"/>
<path d="M44.3348 44.2419L45.8398 48.8735L43.5239 49.626L44.3348 44.2419Z" fill="#FFDA46"/>
<path d="M48.9808 47.6043H44.1108V50.0393L48.9808 47.6043Z" fill="#FFDA46"/>
<path d="M48.9808 47.6043L45.0409 50.4668L43.6097 48.4969L48.9808 47.6043Z" fill="#FFDA46"/>
<path d="M47.2104 53.0514L45.7055 48.4197L43.3897 49.1722L47.2104 53.0514Z" fill="#FFDA46"/>
<path d="M47.2104 53.0514L43.2705 50.1889L44.7018 48.2189L47.2104 53.0514Z" fill="#FFDA46"/>
<path d="M39.7156 47.6043H44.5856V50.0393L39.7156 47.6043Z" fill="#FFDA46"/>
<path d="M39.7156 47.6043L43.6555 50.4668L45.0868 48.4969L39.7156 47.6043Z" fill="#FFDA46"/>
<path d="M41.476 53.0514L42.9809 48.4197L45.2967 49.1722L41.476 53.0514Z" fill="#FFDA46"/>
<path d="M41.476 53.0514L45.4159 50.1889L43.9846 48.2189L41.476 53.0514Z" fill="#FFDA46"/>
<path d="M56.1022 27.7443L60.0421 24.8817L58.6108 22.9118L56.1022 27.7443Z" fill="#FFDA46"/>
<path d="M56.1022 27.7443L57.6071 23.1126L59.9229 23.8651L56.1022 27.7443Z" fill="#FFDA46"/>
<path d="M54.3285 22.2964L58.2684 25.159L59.6997 23.189L54.3285 22.2964Z" fill="#FFDA46"/>
<path d="M54.3285 22.2964H59.1985V24.7314L54.3285 22.2964Z" fill="#FFDA46"/>
<path d="M58.9658 18.9343L57.4609 23.5659L59.7767 24.3184L58.9658 18.9343Z" fill="#FFDA46"/>
<path d="M58.9658 18.9343L60.4707 23.5659L58.1549 24.3184L58.9658 18.9343Z" fill="#FFDA46"/>
<path d="M61.8206 27.7433L57.8806 24.8808L59.3119 22.9108L61.8206 27.7433Z" fill="#FFDA46"/>
<path d="M61.8206 27.7433L60.3156 23.1116L57.9998 23.8641L61.8206 27.7433Z" fill="#FFDA46"/>
<path d="M63.5872 22.2986L59.6472 25.1612L58.216 23.1912L63.5872 22.2986Z" fill="#FFDA46"/>
<path d="M63.5872 22.2986H58.7172V24.7336L63.5872 22.2986Z" fill="#FFDA46"/>
<path d="M51.1283 38.4388L49.6234 33.8071L47.3076 34.5596L51.1283 38.4388Z" fill="#FFDA46"/>
<path d="M51.1283 38.4388L47.1884 35.5763L48.6196 33.6063L51.1283 38.4388Z" fill="#FFDA46"/>
<path d="M45.4208 38.4366L49.3607 35.5741L47.9294 33.6042L45.4208 38.4366Z" fill="#FFDA46"/>
<path d="M45.4208 38.4366L46.9257 33.805L49.2415 34.5575L45.4208 38.4366Z" fill="#FFDA46"/>
<path d="M43.6284 32.9909L47.5683 35.8534L48.9996 33.8835L43.6284 32.9909Z" fill="#FFDA46"/>
<path d="M43.6284 32.9909H48.4984V35.4259L43.6284 32.9909Z" fill="#FFDA46"/>
<path d="M52.8955 32.9966L48.9556 35.8592L47.5243 33.8892L52.8955 32.9966Z" fill="#FFDA46"/>
<path d="M52.8955 32.9966H48.0255V35.4316L52.8955 32.9966Z" fill="#FFDA46"/>
<path d="M48.271 29.6308L49.7759 34.2624L47.4601 35.0149L48.271 29.6308Z" fill="#FFDA46"/>
<path d="M48.271 29.6308L46.7661 34.2624L49.0819 35.0149L48.271 29.6308Z" fill="#FFDA46"/>
<path d="M52.8811 62.2156H48.0111V64.6506L52.8811 62.2156Z" fill="#FFDA46"/>
<path d="M52.8811 62.2156L48.9412 65.0781L47.5099 63.1081L52.8811 62.2156Z" fill="#FFDA46"/>
<path d="M51.1326 67.6616L49.6277 63.0299L47.3118 63.7824L51.1326 67.6616Z" fill="#FFDA46"/>
<path d="M51.1326 67.6616L47.1927 64.799L48.6239 62.8291L51.1326 67.6616Z" fill="#FFDA46"/>
<path d="M45.3972 67.6614L49.3371 64.7989L47.9059 62.829L45.3972 67.6614Z" fill="#FFDA46"/>
<path d="M45.3972 67.6614L46.9021 63.0298L49.218 63.7822L45.3972 67.6614Z" fill="#FFDA46"/>
<path d="M48.255 58.8518L49.7599 63.4835L47.4441 64.2359L48.255 58.8518Z" fill="#FFDA46"/>
<path d="M48.255 58.8518L46.7501 63.4835L49.0659 64.2359L48.255 58.8518Z" fill="#FFDA46"/>
<path d="M43.6401 62.2164H48.5101V64.6514L43.6401 62.2164Z" fill="#FFDA46"/>
<path d="M43.6401 62.2164L47.5801 65.0789L49.0113 63.1089L43.6401 62.2164Z" fill="#FFDA46"/>
<path d="M63.5737 72.9077H58.7037V75.3427L63.5737 72.9077Z" fill="#FFDA46"/>
<path d="M63.5737 72.9077L59.6338 75.7702L58.2026 73.8002L63.5737 72.9077Z" fill="#FFDA46"/>
<path d="M61.8031 78.3547L60.2982 73.7231L57.9824 74.4755L61.8031 78.3547Z" fill="#FFDA46"/>
<path d="M61.8031 78.3547L57.8632 75.4922L59.2944 73.5223L61.8031 78.3547Z" fill="#FFDA46"/>
<path d="M56.0846 78.3535L60.0245 75.491L58.5933 73.521L56.0846 78.3535Z" fill="#FFDA46"/>
<path d="M56.0846 78.3535L57.5895 73.7219L59.9053 74.4743L56.0846 78.3535Z" fill="#FFDA46"/>
<path d="M58.9437 69.5411L60.4486 74.1728L58.1328 74.9252L58.9437 69.5411Z" fill="#FFDA46"/>
<path d="M58.9437 69.5411L57.4388 74.1728L59.7546 74.9252L58.9437 69.5411Z" fill="#FFDA46"/>
<path d="M54.3101 72.9069H59.1801V75.3419L54.3101 72.9069Z" fill="#FFDA46"/>
<path d="M54.3101 72.9069L58.25 75.7694L59.6812 73.7994L54.3101 72.9069Z" fill="#FFDA46"/>
<path d="M102.781 44.2441L104.286 48.8758L101.97 49.6282L102.781 44.2441Z" fill="#FFDA46"/>
<path d="M102.781 44.2441L101.276 48.8758L103.592 49.6282L102.781 44.2441Z" fill="#FFDA46"/>
<path d="M98.1484 47.6066H103.018V50.0416L98.1484 47.6066Z" fill="#FFDA46"/>
<path d="M98.1484 47.6066L102.088 50.4691L103.52 48.4991L98.1484 47.6066Z" fill="#FFDA46"/>
<path d="M99.9089 53.0536L101.414 48.4219L103.73 49.1744L99.9089 53.0536Z" fill="#FFDA46"/>
<path d="M99.9089 53.0536L103.849 50.1911L102.418 48.2211L99.9089 53.0536Z" fill="#FFDA46"/>
<path d="M107.397 47.6066H102.527V50.0416L107.397 47.6066Z" fill="#FFDA46"/>
<path d="M107.397 47.6066L103.457 50.4691L102.026 48.4992L107.397 47.6066Z" fill="#FFDA46"/>
<path d="M105.643 53.0525L104.138 48.4208L101.823 49.1733L105.643 53.0525Z" fill="#FFDA46"/>
<path d="M105.643 53.0525L101.703 50.19L103.135 48.22L105.643 53.0525Z" fill="#FFDA46"/>
<path d="M91.0306 27.7444L87.0907 24.8819L88.522 22.912L91.0306 27.7444Z" fill="#FFDA46"/>
<path d="M91.0306 27.7444L89.5257 23.1128L87.2099 23.8653L91.0306 27.7444Z" fill="#FFDA46"/>
<path d="M92.804 22.2975L88.864 25.1601L87.4328 23.1901L92.804 22.2975Z" fill="#FFDA46"/>
<path d="M92.804 22.2975H87.934V24.7325L92.804 22.2975Z" fill="#FFDA46"/>
<path d="M88.1793 18.9353L89.6842 23.567L87.3684 24.3194L88.1793 18.9353Z" fill="#FFDA46"/>
<path d="M88.1793 18.9353L86.6744 23.567L88.9902 24.3194L88.1793 18.9353Z" fill="#FFDA46"/>
<path d="M85.3079 27.7432L89.2478 24.8807L87.8165 22.9107L85.3079 27.7432Z" fill="#FFDA46"/>
<path d="M85.3079 27.7432L86.8128 23.1116L89.1286 23.864L85.3079 27.7432Z" fill="#FFDA46"/>
<path d="M83.5457 22.2953L87.4856 25.1579L88.9168 23.1879L83.5457 22.2953Z" fill="#FFDA46"/>
<path d="M83.5457 22.2953H88.4157V24.7304L83.5457 22.2953Z" fill="#FFDA46"/>
<path d="M96.0001 38.4399L97.505 33.8083L99.8209 34.5607L96.0001 38.4399Z" fill="#FFDA46"/>
<path d="M96.0001 38.4399L99.94 35.5774L98.5088 33.6075L96.0001 38.4399Z" fill="#FFDA46"/>
<path d="M101.713 38.4388L97.7726 35.5763L99.2039 33.6064L101.713 38.4388Z" fill="#FFDA46"/>
<path d="M101.713 38.4388L100.208 33.8072L97.8918 34.5597L101.713 38.4388Z" fill="#FFDA46"/>
<path d="M103.483 32.9941L99.5432 35.8567L98.112 33.8867L103.483 32.9941Z" fill="#FFDA46"/>
<path d="M103.483 32.9941H98.6132V35.4291L103.483 32.9941Z" fill="#FFDA46"/>
<path d="M94.2371 32.993L98.177 35.8555L99.6082 33.8855L94.2371 32.993Z" fill="#FFDA46"/>
<path d="M94.2371 32.993H99.1071V35.428L94.2371 32.993Z" fill="#FFDA46"/>
<path d="M98.8617 29.6297L97.3568 34.2613L99.6726 35.0138L98.8617 29.6297Z" fill="#FFDA46"/>
<path d="M98.8617 29.6297L100.367 34.2613L98.0508 35.0138L98.8617 29.6297Z" fill="#FFDA46"/>
<path d="M94.2306 62.2169H99.1006V64.6519L94.2306 62.2169Z" fill="#FFDA46"/>
<path d="M94.2306 62.2169L98.1705 65.0794L99.6018 63.1094L94.2306 62.2169Z" fill="#FFDA46"/>
<path d="M96.0104 67.6592L97.5153 63.0275L99.8311 63.78L96.0104 67.6592Z" fill="#FFDA46"/>
<path d="M96.0104 67.6592L99.9503 64.7967L98.519 62.8267L96.0104 67.6592Z" fill="#FFDA46"/>
<path d="M101.729 67.6595L97.7888 64.797L99.2201 62.8271L101.729 67.6595Z" fill="#FFDA46"/>
<path d="M101.729 67.6595L100.224 63.0279L97.908 63.7804L101.729 67.6595Z" fill="#FFDA46"/>
<path d="M98.8599 58.8513L97.3549 63.483L99.6708 64.2354L98.8599 58.8513Z" fill="#FFDA46"/>
<path d="M98.8599 58.8513L100.365 63.483L98.049 64.2354L98.8599 58.8513Z" fill="#FFDA46"/>
<path d="M103.498 62.2148H98.6276V64.6498L103.498 62.2148Z" fill="#FFDA46"/>
<path d="M103.498 62.2148L99.5576 65.0774L98.1264 63.1074L103.498 62.2148Z" fill="#FFDA46"/>
<path d="M83.5385 72.9137H88.4085V75.3487L83.5385 72.9137Z" fill="#FFDA46"/>
<path d="M83.5385 72.9137L87.4784 75.7762L88.9096 73.8063L83.5385 72.9137Z" fill="#FFDA46"/>
<path d="M85.29 78.3572L86.795 73.7255L89.1108 74.478L85.29 78.3572Z" fill="#FFDA46"/>
<path d="M85.29 78.3572L89.23 75.4947L87.7987 73.5247L85.29 78.3572Z" fill="#FFDA46"/>
<path d="M91.0212 78.355L87.0813 75.4925L88.5126 73.5225L91.0212 78.355Z" fill="#FFDA46"/>
<path d="M91.0212 78.355L89.5163 73.7233L87.2005 74.4758L91.0212 78.355Z" fill="#FFDA46"/>
<path d="M88.1538 69.5481L86.6489 74.1797L88.9647 74.9322L88.1538 69.5481Z" fill="#FFDA46"/>
<path d="M88.1538 69.5481L89.6587 74.1797L87.3429 74.9322L88.1538 69.5481Z" fill="#FFDA46"/>
<path d="M92.7957 72.9113H87.9257V75.3463L92.7957 72.9113Z" fill="#FFDA46"/>
<path d="M92.7957 72.9113L88.8557 75.7738L87.4245 73.8038L92.7957 72.9113Z" fill="#FFDA46"/>
</svg>
