<svg width="140" height="140" viewBox="0 0 140 140" fill="none" xmlns="http://www.w3.org/2000/svg">
<g clip-path="url(#clip0_506_9354)">
<rect width="140" height="140" rx="10" fill="#F32D50"/>
<g filter="url(#filter0_ddi_506_9354)">
<path d="M82.0091 109.6C84.4891 109.6 86.8691 109.22 89.1491 108.46C91.4291 107.7 93.6091 106.52 95.6891 104.92L92.5691 107.56L106.369 86.74H108.409L103.309 110.5C98.9891 111.62 94.8691 112.4 90.9491 112.84C87.0291 113.32 82.6891 113.56 77.9291 113.56C70.5291 113.56 63.8091 112.62 57.7691 110.74C51.7291 108.82 46.5291 105.96 42.1691 102.16C37.8491 98.32 34.5291 93.58 32.2091 87.94C29.8891 82.3 28.7291 75.76 28.7291 68.32C28.7291 59.64 30.7691 52.02 34.8491 45.46C38.9691 38.9 44.6891 33.8 52.0091 30.16C59.3291 26.48 67.8491 24.64 77.5691 24.64C81.0891 24.64 84.2691 24.82 87.1091 25.18C89.9491 25.5 93.1491 26.06 96.7091 26.86L91.4291 28.36L100.129 21.94H101.089L107.449 54.58L105.469 55.18L90.6491 32.08L95.3291 37.72C91.8091 34.28 88.5691 31.96 85.6091 30.76C82.6491 29.56 79.5891 28.96 76.4291 28.96C73.1491 28.96 70.1091 29.58 67.3091 30.82C64.5491 32.06 62.1291 34.08 60.0491 36.88C57.9691 39.64 56.3491 43.32 55.1891 47.92C54.0291 52.48 53.4491 58.12 53.4491 64.84C53.4491 71.56 54.1891 77.68 55.6691 83.2C57.1891 88.68 59.2491 93.4 61.8491 97.36C64.4891 101.28 67.5291 104.3 70.9691 106.42C74.4091 108.54 78.0891 109.6 82.0091 109.6Z" fill="white"/>
</g>
</g>
<defs>
<filter id="filter0_ddi_506_9354" x="9.729" y="8.94" width="129.68" height="141.62" filterUnits="userSpaceOnUse" color-interpolation-filters="sRGB">
<feFlood flood-opacity="0" result="BackgroundImageFix"/>
<feColorMatrix in="SourceAlpha" type="matrix" values="0 0 0 0 0 0 0 0 0 0 0 0 0 0 0 0 0 0 127 0" result="hardAlpha"/>
<feOffset dx="6" dy="12"/>
<feGaussianBlur stdDeviation="12.5"/>
<feComposite in2="hardAlpha" operator="out"/>
<feColorMatrix type="matrix" values="0 0 0 0 0 0 0 0 0 0 0 0 0 0 0 0 0 0 0.4 0"/>
<feBlend mode="normal" in2="BackgroundImageFix" result="effect1_dropShadow_506_9354"/>
<feColorMatrix in="SourceAlpha" type="matrix" values="0 0 0 0 0 0 0 0 0 0 0 0 0 0 0 0 0 0 127 0" result="hardAlpha"/>
<feOffset dx="-2" dy="-2"/>
<feGaussianBlur stdDeviation="4"/>
<feComposite in2="hardAlpha" operator="out"/>
<feColorMatrix type="matrix" values="0 0 0 0 1 0 0 0 0 0.807843 0 0 0 0 0 0 0 0 0.7 0"/>
<feBlend mode="normal" in2="effect1_dropShadow_506_9354" result="effect2_dropShadow_506_9354"/>
<feBlend mode="normal" in="SourceGraphic" in2="effect2_dropShadow_506_9354" result="shape"/>
<feColorMatrix in="SourceAlpha" type="matrix" values="0 0 0 0 0 0 0 0 0 0 0 0 0 0 0 0 0 0 127 0" result="hardAlpha"/>
<feOffset dy="-4"/>
<feGaussianBlur stdDeviation="2"/>
<feComposite in2="hardAlpha" operator="arithmetic" k2="-1" k3="1"/>
<feColorMatrix type="matrix" values="0 0 0 0 0 0 0 0 0 0 0 0 0 0 0 0 0 0 0.1 0"/>
<feBlend mode="normal" in2="shape" result="effect3_innerShadow_506_9354"/>
</filter>
<clipPath id="clip0_506_9354">
<rect width="140" height="140" rx="10" fill="white"/>
</clipPath>
</defs>
</svg>
