<svg width="100" height="100" viewBox="0 0 100 100" fill="none" xmlns="http://www.w3.org/2000/svg">
<rect width="100" height="100" fill="white"/>
<path d="M21.7988 18.7988L10.9432 35.0822ZM15.0141 37.7961L25.8697 21.5127ZM29.9405 24.2266L19.0849 40.51ZM70.649 74.886L75.6244 67.4228ZM76.5291 66.0659L81.5046 58.6026ZM85.5754 61.3165L80.5999 68.7798ZM79.6953 70.1367L74.7198 77.5999ZM78.7907 80.3138L83.7661 72.8506ZM84.6708 71.4937L89.6462 64.0304Z" fill="black"/>
<path fill-rule="evenodd" clip-rule="evenodd" d="M9.58192 34.1779L20.4375 17.8945L23.1514 19.7038L12.2958 35.9872L9.58192 34.1779ZM27.2222 22.4177L16.3667 38.7011L13.6528 36.8918L24.5083 20.6084L27.2222 22.4177ZM17.7236 39.6057L28.5792 23.3223L31.2931 25.1316L20.4375 41.415L17.7236 39.6057ZM82.8571 59.5076L77.8816 66.9708L75.1677 65.1616L80.1432 57.6983L82.8571 59.5076ZM79.2386 67.8755L84.2141 60.4122L86.928 62.2215L81.9525 69.6847L79.2386 67.8755ZM90.9988 64.9354L86.0233 72.3986L83.3094 70.5894L88.2849 63.1261L90.9988 64.9354ZM76.977 68.3278L72.0015 75.791L69.2876 73.9817L74.2631 66.5185L76.977 68.3278ZM73.3585 76.6956L78.334 69.2324L81.0479 71.0417L76.0724 78.5049L73.3585 76.6956ZM85.1187 73.7556L80.1432 81.2188L77.4293 79.4095L82.4048 71.9463L85.1187 73.7556Z" fill="black"/>
<path d="M10.9336 64.0273L21.7892 80.3107ZM25.86 77.5968L20.8845 70.1336ZM19.9799 68.7767L15.0044 61.3134ZM19.0753 58.5996L29.9309 74.8829ZM81.4949 40.5069L76.5194 33.0437ZM75.6148 31.6867L70.6393 24.2235ZM74.7102 21.5096L85.5657 37.793ZM89.6366 35.0791L84.6611 27.6159ZM83.7565 26.259L78.781 18.7957Z" fill="black"/>
<path fill-rule="evenodd" clip-rule="evenodd" d="M20.4337 81.2189L9.57812 64.9355L12.292 63.1263L23.1476 79.4097L20.4337 81.2189ZM16.3629 60.4124L21.3383 67.8756L18.6244 69.6849L13.649 62.2217L16.3629 60.4124ZM28.5754 75.7911L17.7198 59.5078L20.4337 57.6985L31.2893 73.9819L28.5754 75.7911ZM71.9977 23.3225L76.9732 30.7857L74.2593 32.5949L69.2839 25.1317L71.9977 23.3225ZM84.2103 38.7012L73.3547 22.4178L76.0686 20.6086L86.9242 36.8919L84.2103 38.7012ZM80.1394 17.8947L85.1149 25.3579L82.401 27.1672L77.4255 19.7039L80.1394 17.8947ZM22.243 69.2325L27.2185 76.6958L24.5046 78.505L19.5291 71.0418L22.243 69.2325ZM77.8779 32.1426L82.8533 39.6058L80.1394 41.4151L75.164 33.9519L77.8779 32.1426ZM86.0195 26.7148L90.995 34.1781L88.2811 35.9873L83.3056 28.5241L86.0195 26.7148Z" fill="black"/>
<path d="M58.7701 54.4521C56.8238 57.8233 53.6179 60.2833 49.8578 61.2908C46.0977 62.2983 42.0913 61.7709 38.7201 59.8245C35.3489 57.8781 32.8889 54.6722 31.8814 50.9121C30.8739 47.152 31.4013 43.1457 33.3477 39.7745C35.9429 35.2795 40.2174 31.9996 45.2309 30.6562C50.2443 29.3128 55.5861 30.0161 60.0811 32.6113C64.5761 35.2064 67.856 39.4809 69.1993 44.4944C70.5427 49.5079 69.8394 54.8497 67.2443 59.3446" fill="#E42E3C"/>
<path d="M50.3038 49.562C51.6014 47.3145 53.7386 45.6745 56.2453 45.0028C58.7521 44.3312 61.423 44.6828 63.6705 45.9804C65.9179 47.278 67.5579 49.4152 68.2296 51.9219C68.9013 54.4287 68.5496 57.0996 67.2521 59.3471C64.6569 63.842 60.3824 67.122 55.3689 68.4653C50.3554 69.8087 45.0136 69.1054 40.5187 66.5102C36.0237 63.9151 32.7438 59.6406 31.4004 54.6271C30.0571 49.6136 30.7603 44.2718 33.3555 39.7769C32.0579 42.0244 31.7063 44.6952 32.378 47.202C33.0496 49.7087 34.6896 51.846 36.9371 53.1436C39.1846 54.4411 41.8555 54.7928 44.3622 54.1211C46.8689 53.4494 49.0062 51.8094 50.3038 49.562Z" fill="#0565DE"/>
</svg>
