<svg width="417" height="100" viewBox="0 0 417 100" fill="none" xmlns="http://www.w3.org/2000/svg">
<g clip-path="url(#clip0_581_7056)">
<path d="M43.7644 83.398C45.4177 83.398 47.0044 83.1447 48.5244 82.638C50.0444 82.1314 51.4977 81.3447 52.8844 80.278L50.8044 82.038L60.0044 68.158H61.3644L57.9644 83.998C55.0844 84.7447 52.3377 85.2647 49.7244 85.558C47.111 85.878 44.2177 86.038 41.0444 86.038C36.111 86.038 31.631 85.4114 27.6044 84.158C23.5777 82.878 20.111 80.9714 17.2044 78.438C14.3244 75.878 12.111 72.718 10.5644 68.958C9.01771 65.198 8.24438 60.838 8.24438 55.878C8.24438 50.0914 9.60438 45.0114 12.3244 40.638C15.071 36.2647 18.8844 32.8647 23.7644 30.438C28.6444 27.9847 34.3244 26.758 40.8044 26.758C43.151 26.758 45.271 26.878 47.1644 27.118C49.0577 27.3314 51.191 27.7047 53.5644 28.238L50.0444 29.238L55.8444 24.958H56.4844L60.7244 46.718L59.4044 47.118L49.5244 31.718L52.6444 35.478C50.2977 33.1847 48.1377 31.638 46.1644 30.838C44.191 30.038 42.151 29.638 40.0444 29.638C37.8577 29.638 35.831 30.0514 33.9644 30.878C32.1244 31.7047 30.511 33.0514 29.1244 34.918C27.7377 36.758 26.6577 39.2114 25.8844 42.278C25.111 45.318 24.7244 49.078 24.7244 53.558C24.7244 58.038 25.2177 62.118 26.2044 65.798C27.2177 69.4514 28.591 72.598 30.3244 75.238C32.0844 77.8514 34.111 79.8647 36.4044 81.278C38.6977 82.6914 41.151 83.398 43.7644 83.398ZM89.1656 83.758L93.1656 82.518V58.078C93.1656 56.638 92.939 55.478 92.4856 54.598C92.059 53.718 91.4056 53.078 90.5256 52.678C89.6456 52.2514 88.5123 52.038 87.1256 52.038C85.819 52.038 84.5123 52.2247 83.2056 52.598C81.9256 52.9447 80.6323 53.438 79.3256 54.078L79.1256 53.318C81.179 51.1047 82.939 49.3314 84.4056 47.998C85.899 46.638 87.2323 45.6247 88.4056 44.958C89.6056 44.2647 90.779 43.8114 91.9256 43.598C93.099 43.358 94.419 43.238 95.8856 43.238C99.5923 43.238 102.379 44.2647 104.246 46.318C106.139 48.3714 107.086 51.358 107.086 55.278V82.438L111.326 83.758V84.998H89.1656V83.758ZM84.7256 84.998H62.6056V83.758L66.8456 82.438V36.998C66.499 36.678 66.019 36.238 65.4056 35.678C64.7923 35.118 64.059 34.4647 63.2056 33.718C62.3523 32.9447 61.4056 32.0914 60.3656 31.158V30.038L80.0456 25.398H80.8056V39.798V82.518L84.7256 83.758V84.998ZM136.814 59.038L136.734 61.118C134.414 61.9447 132.534 62.7447 131.094 63.518C129.654 64.2914 128.547 65.1047 127.774 65.958C127.027 66.7847 126.507 67.6914 126.214 68.678C125.947 69.6647 125.814 70.7847 125.814 72.038C125.814 74.198 126.24 75.7714 127.094 76.758C127.974 77.718 129.107 78.198 130.494 78.198C131.4 78.198 132.187 78.0114 132.854 77.638C133.52 77.2647 134.04 76.678 134.414 75.878C134.787 75.078 134.974 74.038 134.974 72.758V53.758C134.974 51.6247 134.387 49.958 133.214 48.758C132.067 47.5314 130.32 46.918 127.974 46.918C126.774 46.918 125.667 46.9714 124.654 47.078C123.667 47.1847 122.827 47.3447 122.134 47.558L123.814 45.158C123.627 46.998 123.427 48.5314 123.214 49.758C123 50.958 122.774 51.9314 122.534 52.678C122.294 53.398 122 53.9847 121.654 54.438C121.227 55.0247 120.574 55.5047 119.694 55.878C118.84 56.2514 117.894 56.438 116.854 56.438C115.467 56.438 114.44 56.2114 113.774 55.758C113.107 55.278 112.774 54.638 112.774 53.838C112.774 52.638 113.387 51.4114 114.614 50.158C115.84 48.878 117.467 47.7047 119.494 46.638C121.547 45.5447 123.84 44.6647 126.374 43.998C128.907 43.3314 131.48 42.998 134.094 42.998C137.694 42.998 140.574 43.518 142.734 44.558C144.92 45.5714 146.494 47.038 147.454 48.958C148.414 50.8514 148.894 53.0914 148.894 55.678V77.198C148.894 77.8647 149 78.4114 149.214 78.838C149.427 79.2647 149.734 79.5847 150.134 79.798C150.56 79.9847 151.054 80.078 151.614 80.078C152.254 80.078 152.894 79.998 153.534 79.838C154.2 79.6514 154.88 79.3847 155.574 79.038V81.038C153.52 82.958 151.587 84.278 149.774 84.998C147.96 85.6914 145.907 86.038 143.614 86.038C141.56 86.038 139.907 85.6647 138.654 84.918C137.427 84.1447 136.52 82.958 135.934 81.358C135.374 79.7314 135.054 77.6647 134.974 75.158L135.534 75.518C135 77.8647 134.2 79.8114 133.134 81.358C132.094 82.9047 130.827 84.0647 129.334 84.838C127.867 85.6114 126.214 85.998 124.374 85.998C120.507 85.998 117.534 85.0514 115.454 83.158C113.4 81.238 112.374 78.638 112.374 75.358C112.374 73.7047 112.654 72.2247 113.214 70.918C113.8 69.5847 114.92 68.3314 116.574 67.158C118.254 65.958 120.707 64.718 123.934 63.438C127.187 62.1314 131.48 60.6647 136.814 59.038ZM173.012 52.478V82.518L176.972 83.758V84.998H154.852V83.758L159.092 82.438V53.798C158.639 53.318 157.999 52.638 157.172 51.758C156.372 50.878 155.372 49.8914 154.172 48.798V47.678L172.292 42.838H173.012V52.478ZM181.412 83.758L185.412 82.518V58.078C185.412 56.638 185.185 55.478 184.732 54.598C184.305 53.718 183.652 53.078 182.772 52.678C181.892 52.2514 180.759 52.038 179.372 52.038C178.039 52.038 176.732 52.2247 175.452 52.598C174.172 52.9447 172.879 53.438 171.572 54.078L171.372 53.318C173.425 51.1047 175.185 49.3314 176.652 47.998C178.145 46.638 179.479 45.6247 180.652 44.958C181.825 44.2647 182.999 43.8114 184.172 43.598C185.345 43.358 186.665 43.238 188.132 43.238C191.839 43.238 194.625 44.2647 196.492 46.318C198.385 48.3714 199.332 51.358 199.332 55.278V82.438L203.572 83.758V84.998H181.412V83.758ZM227.565 42.998C231.005 42.998 233.738 43.358 235.765 44.078C237.818 44.798 239.285 45.718 240.165 46.838C241.072 47.9314 241.525 49.0647 241.525 50.238C241.525 51.2247 241.272 52.1047 240.765 52.878C240.285 53.6247 239.658 54.2114 238.885 54.638C238.112 55.038 237.285 55.238 236.405 55.238C236.112 55.238 235.672 54.918 235.085 54.278C234.498 53.6114 233.792 52.8114 232.965 51.878C232.165 50.918 231.285 49.9714 230.325 49.038C229.365 48.078 228.365 47.278 227.325 46.638C226.312 45.9714 225.312 45.638 224.325 45.638C223.018 45.638 221.858 46.0514 220.845 46.878C219.858 47.678 219.085 49.0247 218.525 50.918C217.965 52.7847 217.685 55.3447 217.685 58.598C217.685 63.0514 218.165 66.6247 219.125 69.318C220.085 71.9847 221.485 73.918 223.325 75.118C225.165 76.318 227.418 76.918 230.085 76.918C232.325 76.918 234.298 76.5714 236.005 75.878C237.738 75.158 239.485 73.8914 241.245 72.078L242.205 72.878C240.392 76.1847 238.565 78.798 236.725 80.718C234.912 82.638 232.992 84.0114 230.965 84.838C228.965 85.638 226.738 86.038 224.285 86.038C220.365 86.038 216.925 85.2247 213.965 83.598C211.005 81.9714 208.698 79.6114 207.045 76.518C205.392 73.398 204.565 69.6514 204.565 65.278C204.565 62.078 205.152 59.1314 206.325 56.438C207.498 53.718 209.138 51.358 211.245 49.358C213.352 47.3314 215.792 45.7714 218.565 44.678C221.365 43.558 224.365 42.998 227.565 42.998ZM264.144 42.998C267.531 42.998 270.411 43.6647 272.784 44.998C275.158 46.3047 277.011 48.2114 278.344 50.718C279.678 53.2247 280.478 56.238 280.744 59.758H253.624V56.598H274.664L268.344 58.558C268.184 55.278 267.878 52.718 267.424 50.878C266.998 49.0114 266.398 47.6914 265.624 46.918C264.878 46.1447 263.931 45.758 262.784 45.758C261.371 45.758 260.171 46.1847 259.184 47.038C258.224 47.8914 257.491 49.3314 256.984 51.358C256.478 53.3847 256.224 56.1714 256.224 59.718C256.224 63.8514 256.704 67.1847 257.664 69.718C258.651 72.2247 260.104 74.0514 262.024 75.198C263.944 76.3447 266.318 76.918 269.144 76.918C270.584 76.918 271.931 76.758 273.184 76.438C274.464 76.0914 275.691 75.5447 276.864 74.798C278.064 74.0514 279.264 73.0514 280.464 71.798L281.424 72.638C279.558 75.9714 277.678 78.6247 275.784 80.598C273.918 82.5447 271.944 83.9447 269.864 84.798C267.811 85.6247 265.531 86.038 263.024 86.038C259.078 86.038 255.598 85.2247 252.584 83.598C249.571 81.9714 247.224 79.6114 245.544 76.518C243.891 73.4247 243.064 69.7047 243.064 65.358C243.064 61.358 243.864 57.6647 245.464 54.278C247.064 50.8647 249.424 48.1314 252.544 46.078C255.691 44.0247 259.558 42.998 264.144 42.998ZM300.096 82.438L304.336 83.758V84.998H281.896V83.758L286.136 82.438V36.198C285.789 35.9047 285.309 35.5047 284.696 34.998C284.082 34.4914 283.349 33.8914 282.496 33.198C281.642 32.5047 280.696 31.7314 279.656 30.878V29.758L299.336 25.398H300.096V33.478V82.438ZM323.086 82.438L327.326 83.758V84.998H304.886V83.758L309.126 82.438V36.198C308.78 35.9047 308.3 35.5047 307.686 34.998C307.073 34.4914 306.34 33.8914 305.486 33.198C304.633 32.5047 303.686 31.7314 302.646 30.878V29.758L322.326 25.398H323.086V33.478V82.438ZM350.197 83.398C351.877 83.398 353.224 82.7847 354.237 81.558C355.277 80.3314 356.024 78.4114 356.477 75.798C356.93 73.158 357.157 69.758 357.157 65.598C357.157 61.1714 356.93 57.4914 356.477 54.558C356.05 51.598 355.317 49.3847 354.277 47.918C353.264 46.4247 351.877 45.678 350.117 45.678C348.41 45.678 347.05 46.2914 346.037 47.518C345.024 48.7447 344.29 50.6647 343.837 53.278C343.384 55.8914 343.157 59.278 343.157 63.438C343.157 67.838 343.37 71.518 343.797 74.478C344.224 77.438 344.944 79.6647 345.957 81.158C346.997 82.6514 348.41 83.398 350.197 83.398ZM349.677 86.038C345.544 86.038 341.89 85.1314 338.717 83.318C335.544 81.5047 333.064 78.998 331.277 75.798C329.517 72.5714 328.637 68.8647 328.637 64.678C328.637 60.3847 329.584 56.6114 331.477 53.358C333.397 50.1047 336.01 47.5714 339.317 45.758C342.65 43.918 346.41 42.998 350.597 42.998C354.837 42.998 358.53 43.9047 361.677 45.718C364.824 47.5047 367.277 50.0114 369.037 53.238C370.797 56.438 371.677 60.1447 371.677 64.358C371.677 68.6514 370.704 72.438 368.757 75.718C366.81 78.9714 364.184 81.5047 360.877 83.318C357.57 85.1314 353.837 86.038 349.677 86.038ZM405.657 43.198C407.177 43.198 408.364 43.6647 409.217 44.598C410.097 45.5047 410.537 46.718 410.537 48.238C410.537 50.158 409.91 51.798 408.657 53.158C407.404 54.4914 405.87 55.158 404.057 55.158C402.91 55.158 401.924 55.0647 401.097 54.878C400.297 54.6647 399.497 54.4647 398.697 54.278C397.924 54.0647 397.017 53.958 395.977 53.958C395.204 53.958 394.497 54.0514 393.857 54.238C393.217 54.4247 392.617 54.7047 392.057 55.078C391.524 55.4247 390.964 55.9047 390.377 56.518L390.337 54.638C392.604 52.078 394.497 50.038 396.017 48.518C397.564 46.998 398.884 45.8647 399.977 45.118C401.097 44.3447 402.097 43.838 402.977 43.598C403.857 43.3314 404.75 43.198 405.657 43.198ZM391.737 51.198V82.438L396.817 83.758V84.998H373.577V83.758L377.817 82.438V53.798C377.47 53.4514 377.11 53.0914 376.737 52.718C376.364 52.3447 375.87 51.8647 375.257 51.278C374.67 50.6647 373.884 49.838 372.897 48.798V47.678L391.017 42.838H391.737V51.198Z" fill="black"/>
<path d="M150.272 15.9038L155.548 15.1623L158.236 34.2864L160.724 34.8577L160.815 35.5073L150.801 36.9146L150.71 36.265L152.96 35.0279L150.272 15.9038ZM161.565 15.2054L144.199 17.6459L146.136 16.8244L143.882 22.7477L142.984 22.68L142.656 14.8253L143.163 14.754L146.251 15.9196L144.312 15.8043L160.933 13.4684L159.544 14.0513L162.176 12.0819L162.683 12.0107L164.548 19.6494L163.688 19.9642L159.905 14.8894L161.565 15.2054ZM176.508 32.6879L178.078 31.7886L176.947 23.7397C176.875 23.2327 176.733 22.8326 176.519 22.5395C176.306 22.2463 176.014 22.0503 175.645 21.9514C175.285 21.8405 174.841 21.8221 174.312 21.8964C173.7 21.9825 173.147 22.1517 172.655 22.404C172.161 22.6457 171.749 22.9352 171.42 23.2723L170.848 22.771C171.448 21.9004 171.989 21.1889 172.471 20.6364C172.963 20.0718 173.428 19.6293 173.868 19.309C174.308 18.9887 174.753 18.7484 175.205 18.588C175.656 18.4276 176.146 18.3103 176.674 18.2361C178.079 18.0386 179.184 18.3142 179.989 19.0627C180.804 19.7992 181.332 21.0283 181.574 22.7501L182.741 31.0525L184.747 31.5299L184.831 32.132L176.592 33.2899L176.508 32.6879ZM175.246 33.4792L166.848 34.6594L166.763 34.0573L168.528 33.0499L166.106 15.8113C165.921 15.6434 165.704 15.48 165.455 15.3211C165.207 15.1621 164.909 14.9993 164.562 14.8325C164.226 14.6643 163.836 14.493 163.392 14.3185L163.305 13.7006L169.927 10.9279L170.387 10.8633L170.742 14.885L173.203 32.393L175.161 32.8771L175.246 33.4792ZM190.543 16.2546C191.789 16.0795 192.887 16.1891 193.837 16.5834C194.786 16.9778 195.577 17.626 196.21 18.528C196.842 19.4194 197.306 20.539 197.603 21.8868L187.415 23.3186L187.246 22.0013L195.233 20.5396L193.148 21.6889C192.968 20.7125 192.744 19.9253 192.477 19.3273C192.219 18.7173 191.91 18.2814 191.55 18.0196C191.201 17.7563 190.794 17.6574 190.329 17.7227C189.822 17.7939 189.4 18.0094 189.063 18.3692C188.724 18.7184 188.494 19.2677 188.373 20.0172C188.263 20.7652 188.296 21.7676 188.473 23.0246C188.648 24.271 188.99 25.2893 189.5 26.0794C190.019 26.8574 190.677 27.4058 191.476 27.7244C192.275 28.043 193.181 28.131 194.195 27.9885C194.671 27.9217 195.108 27.8118 195.506 27.6588C195.915 27.5044 196.307 27.2986 196.68 27.0415C197.062 26.7724 197.435 26.4398 197.8 26.0439L198.398 26.6223C197.894 27.5549 197.35 28.3637 196.768 29.0488C196.186 29.7338 195.541 30.2822 194.834 30.6939C194.136 31.0936 193.349 31.355 192.472 31.4783C191.036 31.6802 189.735 31.5452 188.57 31.0734C187.415 30.6001 186.46 29.8565 185.704 28.8426C184.956 27.8167 184.482 26.5854 184.28 25.1489C184.081 23.7334 184.177 22.3896 184.569 21.1173C184.972 19.8435 185.672 18.7703 186.67 17.8976C187.667 17.025 188.958 16.4773 190.543 16.2546Z" fill="black"/>
<path fill-rule="evenodd" clip-rule="evenodd" d="M205.097 39.9495C204.22 39.8432 203.592 39.0448 203.736 38.1729C206.27 22.8607 218.018 12.1558 228.929 8.48235C229.766 8.20034 230.648 8.70276 230.885 9.55416V9.55416C231.122 10.4056 230.624 11.2832 229.788 11.57C219.929 14.9521 209.271 24.7106 206.917 38.5577C206.768 39.4289 205.975 40.0558 205.097 39.9495V39.9495Z" fill="#F42C50"/>
<path fill-rule="evenodd" clip-rule="evenodd" d="M206.97 28.1578C219.74 7.49182 235.196 5.06529 242.358 7.53538C240.461 8.97578 239.25 11.2044 238.288 13.7538C232.705 15.4364 225.482 18.8529 221.685 24.733C223.827 22.4746 230.823 19.5069 236.593 19.0651C233.678 28.8953 230.303 38.8957 206.97 28.1578Z" fill="#F42C50"/>
</g>
<defs>
<clipPath id="clip0_581_7056">
<rect width="417" height="100" fill="white"/>
</clipPath>
</defs>
</svg>
