<svg width="200" height="200" viewBox="0 0 200 200" fill="none" xmlns="http://www.w3.org/2000/svg">
<path d="M172.028 61.0848C170.415 59.9799 167.659 60.3965 165.411 60.3784C156.382 60.3059 147.353 60.4508 138.325 60.2516C136.566 60.2153 134.844 59.0742 133.085 58.4403C133.302 57.8425 133.502 57.2448 133.701 56.629C141.588 55.4154 149.456 54.2018 158.032 52.8795C153.808 37.6464 141.642 42.374 131.997 40.4177C133.176 38.86 134.517 37.574 135.931 37.4653C138.125 37.2842 140.373 38.0268 142.621 38.1717C147.118 38.4796 155.186 32.8465 155.276 28.7167C155.385 23.0111 150.78 21.4714 146.211 20.6564C142.694 20.0224 139.032 19.4247 135.514 19.7145C130.601 20.1311 127.156 18.7545 123.73 15.0594C118.254 9.13643 111.891 4.17344 102.282 5.11532C106.887 11.0202 111.147 16.4722 115.408 21.9424C114.991 22.7031 114.574 23.482 114.157 24.2427C107.195 23.3733 100.233 22.4858 93.1805 21.6163C96.4621 31.6872 102.554 37.9 113.613 38.4978C115.1 38.5702 116.46 40.8706 117.892 42.1385C116.568 43.2253 115.281 45.1634 113.903 45.2539C108.5 45.5437 103.061 45.5075 97.6768 45.0728C92.9992 44.7105 90.2616 42.6275 89.6996 37.0668C87.8684 18.8994 73.3462 12.0345 58.135 13.0307C57.0291 13.1032 55.9956 14.1175 55.3067 14.4798C58.4976 19.8413 61.4347 24.7499 65.5683 31.6872C54.9441 36.8313 45.317 42.9173 34.8015 46.1958C25.3195 49.1482 22.2374 51.9014 27.9121 60.6138C32.8253 68.167 39.9686 74.2892 45.9516 81.1903C47.3657 82.8205 49.3419 85.465 48.8886 86.9865C43.4496 104.81 36.0888 121.419 19.7535 132.523C17.4147 134.117 16.2182 138.536 16.0187 141.742C15.8193 144.912 17.2516 148.336 18.4844 151.433C21.7841 159.819 29.8883 161.558 36.1794 155.019C45.2264 145.619 54.8172 136.544 62.5225 126.129C72.0771 113.16 79.9093 98.9411 88.6117 85.3382C89.8265 83.4363 91.6576 80.7556 93.4162 80.5745C113.341 78.4915 133.284 76.6258 153.264 75.1587C158.83 74.7421 164.649 76.662 170.089 75.847C174.258 75.213 178.048 71.9345 182 69.8334C178.7 66.881 175.654 63.5663 172.028 61.0848ZM113.051 63.7293C102.681 65.5587 92.2196 67.0259 81.7404 68.0764C79.3654 68.3119 73.9989 69.9059 75.685 63.4938C75.7212 63.3489 72.3309 61.5376 71.2068 62.0267C69.4845 62.7874 67.2726 64.7799 67.1457 66.3919C66.7105 71.9164 68.868 76.5534 74.3977 78.7994C76.6459 79.7232 79.1297 80.1579 83.3359 81.3171C73.038 91.6053 63.3746 101.278 53.7112 110.932C53.0404 110.443 52.3515 109.954 51.6625 109.465C55.8143 101.966 59.7848 94.3404 64.1723 86.9865C68.9587 78.9986 68.9949 74.1262 62.0148 68.0221C56.322 63.0591 49.7226 59.0923 43.4133 54.8358C41.0564 53.2418 38.4276 52.0282 34.6927 49.9815C37.5754 48.5686 39.1709 47.3188 40.9295 47.0109C52.1339 45.109 63.157 41.0517 74.7966 44.1672C75.8844 44.457 77.0629 44.7649 78.1325 44.62C84.2786 43.823 88.3035 45.2539 91.9296 51.3399C93.9964 54.7814 100.705 55.8863 105.563 57.1361C108.936 58.0056 112.689 57.2991 116.278 57.2991L117.91 58.9837C116.296 60.6319 114.9 63.4033 113.051 63.7293Z" fill="white"/>
<path d="M163.524 120.776C162.077 108.079 157.897 95.7619 149.429 85.5312C142.771 77.5136 137.361 75.9355 128.169 80.6154C122.47 83.5178 117.476 87.7805 112.247 91.3721C109.75 88.2521 106.982 84.8057 103.634 80.6336C101.535 88.7782 100.034 94.8368 98.4233 100.859C94.4428 115.57 89.9917 130.154 86.6625 145.01C85.5045 150.126 85.8302 156.456 87.911 161.155C89.5575 164.909 94.8589 169.335 98.6224 169.408C104.485 169.517 103.87 162.86 104.648 158.307C106.113 149.817 107.705 141.364 109.406 132.077C120.407 139.786 130.666 130.898 141.377 134.054C141.377 142.398 141.287 150.906 141.432 159.395C141.486 163.64 141.414 168.519 136.565 169.1C133.199 169.481 129.056 167.376 126.034 165.29C122.94 163.168 120.769 159.721 117.494 156.057C117.964 174.215 130.883 189.307 148.995 194.241C157.227 196.472 162.565 193.824 165.297 185.788C166.292 182.849 167.143 179.62 166.98 176.573C166.093 157.962 165.623 139.26 163.524 120.776ZM132.91 92.2972C134.357 92.2065 136.004 95.3265 136.746 98.5009C133.38 98.1926 129.997 97.8842 126.613 97.5758C126.414 97.0498 126.197 96.5237 125.98 95.9977C128.278 94.6554 130.539 92.4424 132.91 92.2972ZM113.857 118.218C115.214 108.06 116.716 106.954 124.569 110.273C120.733 113.103 117.584 115.461 113.857 118.218ZM137.994 119.67C133.091 119.688 128.187 119.688 123.031 119.688C125.962 113.303 131.191 110.019 136.13 111.979C138.265 112.831 139.514 115.842 141.993 118.872C138.844 119.506 138.41 119.67 137.994 119.67Z" fill="white"/>
</svg>
