<svg width="600" height="600" viewBox="0 0 600 600" fill="none" xmlns="http://www.w3.org/2000/svg">
<g clip-path="url(#clip0_600_8027)">
<g filter="url(#filter0_ii_600_8027)">
<path d="M300.824 338.474C322.17 338.474 339.475 321.169 339.475 299.823C339.475 278.477 322.17 261.173 300.824 261.173C279.478 261.173 262.174 278.477 262.174 299.823C262.174 321.169 279.478 338.474 300.824 338.474Z" fill="#FFCE00"/>
<path fill-rule="evenodd" clip-rule="evenodd" d="M294.683 258.343L253.337 49.0286C253.381 32.5811 259.367 20.3838 268.209 12.2786C277.114 4.11583 289.03 0 300.999 0C312.968 0 324.885 4.11583 333.79 12.2786C342.632 20.3838 348.618 32.5811 348.662 49.0286L307.316 258.344C305.255 258.034 303.145 257.873 300.998 257.873C298.852 257.873 296.743 258.033 294.683 258.343ZM290.894 259.092L248.993 49.8916C242.658 34.7129 232.46 25.735 221.189 21.6304C209.838 17.4967 197.254 18.2544 186.196 22.8347C175.138 27.4151 165.704 35.7778 160.6 46.727C155.533 57.599 154.67 71.1586 160.924 86.3709L279.223 263.929C282.801 261.765 286.725 260.118 290.894 259.092ZM281.307 267.056C284.48 265.155 287.951 263.7 291.632 262.776L297.297 291.056L281.307 267.056ZM276.01 266.081L157.237 88.8344C145.575 77.2353 132.718 72.8435 120.734 73.3645C108.666 73.8892 97.3291 79.405 88.8657 87.8684C80.4023 96.3318 74.8865 107.668 74.3618 119.737C73.8408 131.72 78.2326 144.578 89.8317 156.239L267.078 275.013C269.591 271.607 272.604 268.594 276.01 266.081ZM270.199 277.104C272.435 274.102 275.099 271.437 278.101 269.202L294.153 293.156L270.199 277.104ZM264.929 278.223L87.369 159.923C72.1566 153.669 58.597 154.532 47.725 159.599C36.7759 164.703 28.4131 174.137 23.8328 185.195C19.2524 196.253 18.4948 208.837 22.6285 220.188C26.733 231.459 35.7109 241.657 50.8896 247.992L260.091 289.894C261.117 285.725 262.765 281.8 264.929 278.223ZM263.775 290.632C264.699 286.95 266.154 283.48 268.055 280.306L292.054 296.296L263.775 290.632ZM259.341 293.684L50.0266 252.338C33.5791 252.382 21.3819 258.368 13.2767 267.21C5.11388 276.115 0.998047 288.032 0.998047 300.001C0.998047 311.97 5.11388 323.886 13.2767 332.791C21.3819 341.633 33.5791 347.619 50.0266 347.663L259.342 306.317C259.032 304.256 258.871 302.147 258.871 300C258.871 297.853 259.032 295.744 259.341 293.684ZM263.028 305.589C262.761 303.764 262.623 301.898 262.623 300C262.623 298.102 262.761 296.236 263.027 294.412L291.318 300.001L263.028 305.589ZM260.091 310.107L50.8911 352.008C35.7124 358.343 26.7345 368.541 22.6299 379.812C18.4962 391.163 19.2539 403.747 23.8343 414.805C28.4146 425.863 36.7773 435.297 47.7265 440.401C58.5985 445.468 72.1581 446.331 87.3704 440.077L264.929 321.777C262.765 318.2 261.118 314.276 260.091 310.107ZM268.056 319.694C266.155 316.521 264.699 313.05 263.775 309.369L292.055 303.704L268.056 319.694ZM267.078 324.986L89.8302 443.761C78.2311 455.422 73.8393 468.28 74.3603 480.263C74.8851 492.332 80.4008 503.668 88.8643 512.132C97.3277 520.595 108.664 526.111 120.733 526.635C132.716 527.157 145.574 522.765 157.235 511.166L276.009 333.918C272.604 331.405 269.591 328.392 267.078 324.986ZM278.101 330.797C275.099 328.562 272.434 325.897 270.199 322.895L294.152 306.844L278.101 330.797ZM279.222 336.069L160.922 513.627C154.669 528.84 155.532 542.399 160.599 553.271C165.702 564.22 175.136 572.583 186.194 577.163C197.252 581.744 209.837 582.501 221.187 578.368C232.458 574.263 242.657 565.285 248.991 550.107L290.893 340.907C286.724 339.88 282.799 338.233 279.222 336.069ZM291.631 337.222C287.949 336.299 284.478 334.843 281.305 332.942L297.295 308.943L291.631 337.222ZM294.685 341.656L253.338 550.971C253.382 567.419 259.369 579.616 268.211 587.721C277.115 595.884 289.032 600 301.001 600C312.97 600 324.886 595.884 333.791 587.721C342.633 579.616 348.62 567.419 348.663 550.971L307.317 341.655C305.256 341.966 303.145 342.126 300.998 342.126C298.852 342.126 296.744 341.966 294.685 341.656ZM306.589 337.969C304.764 338.236 302.897 338.374 300.998 338.374C299.101 338.374 297.236 338.236 295.413 337.97L301.001 309.68L306.589 337.969ZM311.107 340.906L353.008 550.107C359.343 565.286 369.542 574.264 380.812 578.368C392.163 582.502 404.747 581.745 415.805 577.164C426.863 572.584 436.298 564.221 441.401 553.272C446.468 542.4 447.331 528.84 441.077 513.628L322.776 336.067C319.2 338.232 315.275 339.879 311.107 340.906ZM320.693 332.941C317.52 334.842 314.05 336.298 310.369 337.221L304.705 308.943L320.693 332.941ZM325.989 333.916L444.764 511.165C456.425 522.764 469.283 527.156 481.266 526.635C493.335 526.11 504.671 520.594 513.135 512.131C521.598 503.667 527.114 492.331 527.639 480.262C528.16 468.279 523.768 455.421 512.169 443.76L334.919 324.984C332.407 328.39 329.394 331.403 325.989 333.916ZM331.798 322.893C329.563 325.895 326.899 328.559 323.897 330.795L307.847 306.843L331.798 322.893ZM337.068 321.773L514.633 440.076C529.845 446.33 543.405 445.467 554.276 440.4C565.226 435.297 573.588 425.862 578.169 414.804C582.749 403.746 583.507 391.162 579.373 379.811C575.268 368.541 566.291 358.342 551.112 352.008L341.905 310.104C340.879 314.273 339.232 318.197 337.068 321.773ZM338.221 309.367C337.297 313.047 335.842 316.517 333.942 319.69L309.948 303.704L338.221 309.367ZM342.654 306.314L551.975 347.661C568.423 347.617 580.62 341.631 588.725 332.789C596.888 323.884 601.004 311.968 601.004 299.998C601.004 288.029 596.888 276.113 588.725 267.208C580.62 258.366 568.423 252.38 551.975 252.336L342.654 293.683C342.964 295.744 343.124 297.853 343.124 300C343.124 302.146 342.964 304.254 342.654 306.314ZM338.968 294.411C339.234 296.236 339.372 298.102 339.372 300C339.372 301.897 339.234 303.762 338.968 305.586L310.684 299.998L338.968 294.411ZM341.905 289.895L551.11 247.992C566.289 241.657 575.267 231.459 579.372 220.188C583.505 208.837 582.748 196.253 578.167 185.195C573.587 174.137 565.224 164.703 554.275 159.599C543.403 154.532 529.843 153.669 514.631 159.923L337.068 278.226C339.232 281.802 340.878 285.726 341.905 289.895ZM333.942 280.309C335.842 283.481 337.297 286.951 338.22 290.632L309.946 296.296L333.942 280.309ZM334.92 275.016L512.172 156.239C523.771 144.578 528.163 131.72 527.642 119.737C527.117 107.668 521.601 96.3318 513.138 87.8684C504.674 79.405 493.338 73.8892 481.269 73.3645C469.286 72.8435 456.428 77.2352 444.767 88.8343L325.991 266.085C329.395 268.598 332.408 271.611 334.92 275.016ZM323.899 269.206C326.901 271.441 329.564 274.106 331.799 277.108L307.85 293.156L323.899 269.206ZM322.778 263.933L441.079 86.3731C447.332 71.1608 446.47 57.6012 441.402 46.7292C436.299 35.78 426.865 27.4173 415.807 22.8369C404.749 18.2566 392.165 17.4989 380.814 21.6326C369.543 25.7372 359.345 34.7151 353.01 49.8938L311.108 259.094C315.277 260.121 319.202 261.769 322.778 263.933ZM310.37 262.778C314.052 263.702 317.522 265.158 320.695 267.06L304.706 291.058L310.37 262.778ZM306.588 262.03L300.999 290.32L295.411 262.029C297.235 261.763 299.1 261.625 300.998 261.625C302.896 261.625 304.763 261.763 306.588 262.03Z" fill="#FFCE00"/>
</g>
</g>
<defs>
<filter id="filter0_ii_600_8027" x="0.998047" y="-5" width="600.006" height="610" filterUnits="userSpaceOnUse" color-interpolation-filters="sRGB">
<feFlood flood-opacity="0" result="BackgroundImageFix"/>
<feBlend mode="normal" in="SourceGraphic" in2="BackgroundImageFix" result="shape"/>
<feColorMatrix in="SourceAlpha" type="matrix" values="0 0 0 0 0 0 0 0 0 0 0 0 0 0 0 0 0 0 127 0" result="hardAlpha"/>
<feOffset dy="-5"/>
<feGaussianBlur stdDeviation="5"/>
<feComposite in2="hardAlpha" operator="arithmetic" k2="-1" k3="1"/>
<feColorMatrix type="matrix" values="0 0 0 0 0 0 0 0 0 0 0 0 0 0 0 0 0 0 0.2 0"/>
<feBlend mode="normal" in2="shape" result="effect1_innerShadow_600_8027"/>
<feColorMatrix in="SourceAlpha" type="matrix" values="0 0 0 0 0 0 0 0 0 0 0 0 0 0 0 0 0 0 127 0" result="hardAlpha"/>
<feOffset dy="5"/>
<feGaussianBlur stdDeviation="5"/>
<feComposite in2="hardAlpha" operator="arithmetic" k2="-1" k3="1"/>
<feColorMatrix type="matrix" values="0 0 0 0 1 0 0 0 0 1 0 0 0 0 1 0 0 0 0.75 0"/>
<feBlend mode="normal" in2="effect1_innerShadow_600_8027" result="effect2_innerShadow_600_8027"/>
</filter>
<clipPath id="clip0_600_8027">
<rect width="600" height="600" fill="white"/>
</clipPath>
</defs>
</svg>
